<svg width="179" height="168" viewBox="0 0 179 168" fill="none" xmlns="http://www.w3.org/2000/svg">
<path d="M10.0144 45.2615C10.8789 44.2529 11.8745 43.3644 12.9746 42.6198L12.5551 38.9642L18.2968 36.9519L20.2392 40.0597C21.564 39.9573 22.8966 40.0318 24.2017 40.2812L26.486 37.4025L31.9791 40.0325L31.1555 43.6143C32.1652 44.4774 33.055 45.4717 33.8011 46.5707L37.4528 46.1511L39.4651 51.8928L36.3573 53.8353C36.4611 55.1586 36.3879 56.4899 36.1397 57.7939L39.0183 60.082L36.3806 65.5635L32.7988 64.7438C31.9354 65.7535 30.9397 66.6421 29.8386 67.3854L30.2581 71.041L24.5164 73.0534L22.574 69.9455C21.2505 70.0478 19.9192 69.9733 18.6154 69.7241L16.3311 72.6027L10.8263 69.9844L11.6499 66.4026C10.6402 65.5395 9.75045 64.5453 9.00437 63.4463L5.35266 63.8658L3.34033 58.1241L6.44817 56.1817C6.34236 54.8584 6.41554 53.5268 6.66572 52.2231L3.78708 49.9349L6.42486 44.4535L10.0066 45.2731L10.0144 45.2615ZM14.0041 51.4578C13.3002 52.9208 13.0459 54.5596 13.2734 56.1672C13.5009 57.7747 14.2 59.2786 15.2823 60.4888C16.3646 61.699 17.7814 62.5611 19.3537 62.966C20.9259 63.3709 22.5829 63.3006 24.1151 62.7637C25.6474 62.2269 26.986 61.2478 27.9617 59.9501C28.9375 58.6525 29.5065 57.0947 29.5969 55.4737C29.6872 53.8526 29.2948 52.2412 28.4693 50.8432C27.6438 49.4452 26.4223 48.3233 24.9593 47.6196C22.9974 46.677 20.7415 46.5518 18.6874 47.2715C16.6332 47.9912 14.9488 49.4969 14.0041 51.4578Z" fill="#EBEBEB"/>
<path d="M149.016 102.003C149.868 101.01 150.848 100.135 151.93 99.4002L151.518 95.799L157.178 93.8138L159.101 96.8867C160.406 96.7836 161.72 96.8555 163.006 97.1004L165.259 94.2645L170.663 96.8634L169.854 100.395C170.847 101.246 171.723 102.226 172.457 103.308L176.059 102.897L178.044 108.557L174.971 110.48C175.074 111.785 175.002 113.098 174.757 114.384L177.593 116.637L175.01 122.041L171.463 121.225C170.611 122.218 169.631 123.093 168.549 123.828L168.961 127.429L163.301 129.414L161.378 126.341C160.073 126.444 158.76 126.373 157.474 126.128L155.22 128.964L149.817 126.365L150.625 122.833C149.632 121.982 148.757 121.002 148.022 119.92L144.421 120.332L142.436 114.671L145.508 112.748C145.405 111.443 145.477 110.13 145.722 108.844L142.886 106.591L145.485 101.195L149.016 102.003ZM152.948 108.11C152.254 109.552 152.003 111.168 152.227 112.753C152.451 114.338 153.14 115.821 154.207 117.014C155.274 118.207 156.671 119.057 158.221 119.456C159.771 119.855 161.405 119.786 162.916 119.256C164.426 118.727 165.746 117.761 166.708 116.482C167.669 115.202 168.23 113.666 168.319 112.068C168.407 110.47 168.02 108.881 167.206 107.503C166.391 106.125 165.186 105.019 163.744 104.326C161.81 103.398 159.587 103.275 157.563 103.985C155.539 104.694 153.879 106.178 152.948 108.11Z" fill="#E0E0E0"/>
<path d="M145.874 47.7011C146.531 46.9322 147.289 46.2554 148.127 45.6888L147.808 42.9034L152.187 41.3689L153.674 43.7425C154.684 43.6645 155.699 43.7207 156.693 43.9096L158.437 41.7146L162.617 43.727L161.988 46.4463C162.758 47.1037 163.436 47.8615 164.004 48.6995L166.79 48.381L168.324 52.7591L165.947 54.247C166.026 55.2561 165.97 56.2714 165.78 57.2655L167.974 59.0098L165.966 63.1898L163.247 62.5605C162.588 63.3306 161.829 64.0087 160.99 64.5767L161.312 67.3621L156.934 68.916L155.446 66.5424C154.437 66.621 153.421 66.5635 152.427 66.3715L150.683 68.5664L146.503 66.558L147.129 63.8386C146.361 63.1802 145.684 62.4225 145.116 61.5854L142.331 61.904L140.792 57.5141L143.166 56.0263C143.088 55.0171 143.144 54.0021 143.333 53.0078L141.138 51.2635L143.154 47.0757L145.874 47.7011ZM148.916 52.425C148.378 53.5405 148.184 54.7902 148.357 56.0161C148.53 57.242 149.063 58.389 149.888 59.3121C150.713 60.2351 151.794 60.8926 152.993 61.2015C154.191 61.5104 155.455 61.4567 156.624 61.0473C157.792 60.6379 158.813 59.8912 159.557 58.9015C160.301 57.9118 160.734 56.7238 160.803 55.4876C160.871 54.2514 160.572 53.0227 159.942 51.9568C159.312 50.891 158.38 50.0359 157.264 49.4998C155.77 48.784 154.053 48.6899 152.489 49.2383C150.925 49.7867 149.643 50.9327 148.923 52.425H148.916Z" fill="#EBEBEB"/>
<path d="M134.837 27.469C135.279 26.9512 135.789 26.4951 136.352 26.1133L136.139 24.2408L139.079 23.2113L140.082 24.808C140.76 24.7526 141.442 24.7905 142.109 24.9206L143.275 23.4444L146.084 24.7963L145.664 26.6299C146.18 27.0738 146.636 27.5831 147.02 28.145L148.888 27.9313L149.922 30.8721L148.329 31.8744C148.38 32.5524 148.343 33.2342 148.216 33.9023L149.693 35.0677L148.341 37.8764L146.503 37.453C146.062 37.9718 145.553 38.4279 144.988 38.8088L145.206 40.6813L142.265 41.7107L141.263 40.1141C140.585 40.1676 139.903 40.1297 139.235 40.0014L138.069 41.4776L135.261 40.1257L135.684 38.2921C135.167 37.8493 134.711 37.3398 134.328 36.777L132.456 36.9907L131.426 34.0499L133.015 33.0399C132.96 32.3619 132.998 31.6796 133.128 31.012L131.652 29.8465L133.003 27.0378L134.837 27.4613V27.469ZM136.881 30.6429C136.521 31.3921 136.391 32.2311 136.507 33.054C136.624 33.8769 136.982 34.6467 137.536 35.2662C138.09 35.8857 138.816 36.3269 139.621 36.5342C140.426 36.7415 141.274 36.7056 142.058 36.4309C142.843 36.1562 143.528 35.6551 144.028 34.991C144.528 34.3268 144.819 33.5294 144.866 32.6996C144.912 31.8698 144.712 31.0447 144.29 30.3288C143.868 29.6128 143.243 29.0381 142.494 28.6772C141.996 28.4374 141.456 28.298 140.905 28.267C140.353 28.236 139.801 28.314 139.28 28.4966C138.759 28.6791 138.278 28.9626 137.867 29.3309C137.455 29.6992 137.12 30.1451 136.881 30.6429Z" fill="#F5F5F5"/>
<path d="M32.5383 129.41C32.9821 128.894 33.4914 128.438 34.0533 128.054L33.8397 126.182L36.7805 125.152L37.7827 126.749C38.4607 126.698 39.1425 126.736 39.8106 126.862L40.976 125.386L43.7848 126.737L43.3613 128.575C43.8801 129.016 44.3363 129.526 44.7171 130.09L46.5896 129.873L47.6191 132.813L46.0341 133.816C46.0895 134.494 46.0516 135.176 45.9214 135.843L47.3976 137.009L46.0341 139.825L44.2004 139.402C43.7576 139.919 43.2481 140.375 42.6854 140.758L42.899 142.63L39.9582 143.66L38.9559 142.063C38.278 142.118 37.5957 142.08 36.9281 141.95L35.7626 143.427L32.95 142.075L33.3735 140.241C32.8556 139.799 32.3996 139.29 32.0177 138.726L30.1452 138.94L29.1196 135.987L30.7163 134.985C30.6629 134.307 30.7008 133.625 30.8289 132.957L29.3527 131.792L30.7046 128.995L32.5383 129.414V129.41ZM34.5855 132.584C34.2263 133.333 34.0971 134.172 34.2141 134.994C34.3312 135.817 34.6893 136.586 35.2433 137.205C35.7972 137.824 36.5222 138.265 37.3266 138.472C38.1311 138.68 38.9789 138.644 39.763 138.37C40.5472 138.095 41.2325 137.595 41.7324 136.932C42.2324 136.268 42.5245 135.471 42.572 134.642C42.6195 133.813 42.4202 132.988 41.9992 132.272C41.5783 131.556 40.9546 130.98 40.2069 130.618C39.7089 130.377 39.1682 130.237 38.6158 130.205C38.0635 130.174 37.5103 130.251 36.9881 130.434C36.4658 130.617 35.9847 130.901 35.5725 131.27C35.1602 131.639 34.8248 132.085 34.5855 132.584Z" fill="#F5F5F5"/>
<path d="M54.806 139.627C55.4734 138.85 56.2401 138.164 57.0864 137.588L56.764 134.771L61.1926 133.217L62.6999 135.622C63.7207 135.542 64.7475 135.598 65.7534 135.789L67.5171 133.571L71.7477 135.599L71.1144 138.365C71.8932 139.03 72.5791 139.797 73.1539 140.645L75.9704 140.322L77.5243 144.751L75.1197 146.258C75.1983 147.279 75.1408 148.306 74.9487 149.312L77.1708 151.076L75.1352 155.306L72.3731 154.669C71.7086 155.449 70.9415 156.135 70.0927 156.709L70.4152 159.529L65.9865 161.083L64.4792 158.682C63.4583 158.761 62.4315 158.703 61.4257 158.511L59.662 160.733L55.4315 158.698L56.0647 155.935C55.2878 155.267 54.6021 154.499 54.0252 153.651L51.2087 153.978L49.6548 149.549L52.0595 148.042C51.981 147.019 52.0384 145.991 52.2304 144.984L50.0083 143.224L52.0439 138.994L54.806 139.627ZM57.8828 144.405C57.3395 145.534 57.1431 146.798 57.3185 148.038C57.4938 149.279 58.033 150.439 58.8679 151.373C59.7027 152.306 60.7957 152.972 62.0087 153.284C63.2216 153.597 64.4999 153.542 65.682 153.128C66.8641 152.714 67.8968 151.959 68.6495 150.957C69.4023 149.956 69.8412 148.754 69.9108 147.504C69.9804 146.253 69.6775 145.01 69.0405 143.932C68.4036 142.853 67.4611 141.988 66.3322 141.445C64.8192 140.718 63.0791 140.621 61.4946 141.176C59.9102 141.731 58.611 142.893 57.8828 144.405Z" fill="#EBEBEB"/>
<path d="M27.0183 78.8533C26.9317 78.8942 26.8404 78.9242 26.7464 78.9427C26.5638 78.9893 26.2996 79.0709 25.9461 79.1447C24.9601 79.3648 23.9589 79.5102 22.9509 79.5798C19.6062 79.8309 16.2491 79.294 13.1496 78.0121C10.05 76.7301 7.29441 74.739 5.10417 72.1987C4.44309 71.4345 3.84054 70.6215 3.30162 69.7668C3.1035 69.4676 2.9753 69.219 2.87818 69.0597C2.82647 68.9785 2.78226 68.8926 2.74609 68.8033C2.81055 68.8744 2.86661 68.9526 2.91314 69.0364C3.02191 69.1918 3.16177 69.4249 3.36766 69.724C5.49545 72.9161 8.4243 75.4933 11.8611 77.1977C15.2979 78.9022 19.1221 79.674 22.9509 79.436C23.9542 79.3718 24.9521 79.242 25.9384 79.0476C26.2919 78.9893 26.5599 78.9155 26.7425 78.8805C26.8336 78.8641 26.9258 78.855 27.0183 78.8533Z" fill="#E0E0E0"/>
<path d="M19.3494 81.6816C19.2099 81.6962 19.0693 81.6962 18.9299 81.6816C18.6618 81.6816 18.2733 81.6544 17.7955 81.6C16.5496 81.4679 15.3207 81.2075 14.1282 80.823C12.9377 80.4321 11.7898 79.9219 10.7018 79.3002C10.2862 79.0593 9.95596 78.8496 9.73841 78.6942C9.61891 78.6216 9.50812 78.5356 9.4082 78.4378C9.42763 78.4067 9.92877 78.7252 10.7718 79.172C11.8635 79.7535 13.0034 80.2396 14.1787 80.6249C15.3596 81.0086 16.5708 81.2919 17.7994 81.4718C18.7589 81.6 19.3494 81.6466 19.3494 81.6816Z" fill="#E0E0E0"/>
<path d="M64.8487 39.9165C68.5867 37.6595 72.6094 35.9114 76.81 34.7187L79.2729 22.8778L99.2797 22.5243L102.158 34.2719C106.4 35.3156 110.482 36.9212 114.298 39.0464L124.399 32.4189L138.796 46.3187L132.53 56.6523C134.786 60.3921 136.534 64.4159 137.728 68.6175L149.565 71.0843L149.918 91.0872L138.17 93.9697C137.126 98.2095 135.52 102.291 133.396 106.106L140.023 116.206L126.128 130.599L115.798 124.333C112.058 126.59 108.034 128.338 103.833 129.531L101.37 141.372L81.363 141.722L78.4843 129.974C74.2425 128.932 70.1595 127.326 66.3443 125.2L56.2438 131.827L41.839 117.943L48.1091 107.605C45.8557 103.866 44.1128 99.8418 42.9267 95.6402L31.0664 93.1772L30.7168 73.1705L42.4644 70.2918C43.5081 66.0518 45.1138 61.9703 47.2389 58.1557L40.6114 48.0552L54.5073 33.662L64.8487 39.9282V39.9165ZM70.8973 63.3846C67.1906 67.225 64.7059 72.0783 63.7573 77.3307C62.8087 82.5832 63.439 87.999 65.5683 92.8933C67.6976 97.7877 71.2303 101.941 75.7198 104.827C80.2093 107.714 85.454 109.204 90.7906 109.11C96.1272 109.017 101.316 107.342 105.701 104.299C110.086 101.256 113.471 96.9816 115.426 92.0153C117.382 87.0491 117.821 81.6145 116.688 76.3986C115.555 71.1828 112.901 66.4201 109.062 62.7126C106.512 60.2505 103.502 58.3148 100.204 57.016C96.9058 55.7173 93.3842 55.081 89.8402 55.1434C86.2963 55.2058 82.7993 55.9657 79.549 57.3798C76.2988 58.7938 73.3589 60.8343 70.8973 63.3846Z" fill="#EBEBEB"/>
<path d="M70.8967 63.3839C70.8967 63.3839 71.2852 62.9449 72.1204 62.1718C74.2094 60.2365 76.5985 58.653 79.1946 57.4829C80.4855 56.893 81.8224 56.4097 83.1921 56.0377C86.5405 55.1274 90.0318 54.8637 93.479 55.2608C97.6663 55.7489 101.681 57.2125 105.199 59.534C108.177 61.5047 110.743 64.0353 112.755 66.9851C113.458 68.0283 114.09 69.1172 114.647 70.2444C117.001 75.0623 117.875 80.4697 117.157 85.7836C116.972 87.1697 116.677 88.5388 116.275 89.8782C115.879 91.2423 115.368 92.5705 114.748 93.8485C112.221 99.1256 108.053 103.443 102.869 106.156C101.612 106.82 100.302 107.377 98.9527 107.822C97.6284 108.269 96.271 108.612 94.8931 108.848C89.6073 109.758 84.1705 109.082 79.2684 106.905C78.1241 106.386 77.0146 105.793 75.9469 105.13C72.9287 103.221 70.3098 100.745 68.2356 97.8382C65.7984 94.4009 64.2017 90.4397 63.5738 86.2731C63.0571 82.8423 63.1995 79.3443 63.9934 75.9668C64.3163 74.5737 64.7528 73.2094 65.2987 71.8877C65.7451 70.7849 66.2643 69.713 66.8526 68.6789C67.6847 67.2494 68.6485 65.9007 69.7312 64.6503C70.4771 63.7996 70.8967 63.3839 70.8967 63.3839L70.6053 63.7102C70.4189 63.9316 70.112 64.2347 69.7584 64.6736C68.6987 65.9336 67.7535 67.2857 66.9342 68.7138C66.3452 69.7462 65.8261 70.817 65.3803 71.9188C64.8449 73.2275 64.4162 74.5773 64.0983 75.9551C63.3179 79.3179 63.186 82.7988 63.7098 86.211C64.3468 90.3524 65.9432 94.2875 68.3716 97.7022C69.7213 99.5967 71.3104 101.309 73.0994 102.795C74.0325 103.573 75.0162 104.288 76.044 104.936C77.1054 105.593 78.2084 106.181 79.3461 106.696C85.5181 109.438 92.4934 109.771 98.8983 107.628C100.237 107.184 101.537 106.629 102.783 105.969C107.928 103.275 112.064 98.9893 114.574 93.7514C115.19 92.4837 115.699 91.1659 116.092 89.8122C116.49 88.4828 116.782 87.124 116.967 85.7487C117.68 80.4733 116.818 75.1048 114.488 70.3183C113.934 69.1996 113.307 68.1186 112.612 67.0822C111.931 66.075 111.182 65.1158 110.37 64.2114C108.822 62.4757 107.055 60.948 105.114 59.6661C101.615 57.3531 97.6243 55.8897 93.4596 55.3928C90.0308 54.9922 86.557 55.2466 83.2232 56.1426C81.8561 56.5065 80.5216 56.9834 79.2335 57.5683C76.6408 58.7245 74.2488 60.2864 72.1476 62.1951C71.7203 62.5642 71.4289 62.8828 71.2152 63.077L70.8967 63.3839Z" fill="#263238"/>
<path d="M64.8478 39.9159L54.4909 33.6769H54.5298C50.9985 37.3481 46.3173 42.2041 40.6494 48.0857V48.0235L47.2846 58.124L47.304 58.1551L47.2846 58.1861C45.1738 61.9989 43.5775 66.0746 42.5374 70.3067V70.3456H42.4985L30.7548 73.2281L30.8092 73.1582C30.9218 79.4554 31.0422 86.1412 31.1666 93.1649L31.1044 93.0872L42.9259 95.5579H42.9725V95.6045C44.1657 99.7982 45.9124 103.814 48.1665 107.546L48.1936 107.593L48.1665 107.64L41.9158 117.989V117.876L56.3129 131.772H56.1963L66.2968 125.145L66.3434 125.11L66.3939 125.141C70.2047 127.257 74.2791 128.858 78.5106 129.903H78.5689V129.958C79.4741 133.641 80.4569 137.654 81.4514 141.705L81.3543 141.632L101.357 141.278L101.26 141.36C102.037 137.619 102.88 133.59 103.727 129.519V129.457H103.785C107.974 128.266 111.986 126.523 115.715 124.274L115.77 124.239L115.82 124.274L126.158 130.541H126.033L139.929 116.147V116.272L133.306 106.171L133.271 106.121L133.302 106.066C135.435 102.258 137.05 98.1817 138.103 93.9457V93.8875H138.162L149.909 91.0088L149.836 91.1059C149.716 84.2765 149.6 77.6076 149.486 71.0992L149.56 71.1886L137.715 68.7062H137.661V68.6557C136.473 64.4601 134.729 60.4425 132.474 56.7099L132.447 56.6633L132.474 56.6206L138.744 46.287V46.388L124.371 32.4882H124.464L114.363 39.1118L114.328 39.1351L114.29 39.1156C110.48 36.9921 106.404 35.3865 102.169 34.3412H102.13V34.3024C101.089 30.0291 100.149 26.187 99.2594 22.5547L99.3176 22.6014L79.3109 22.9354L79.3575 22.9005C78.363 27.6438 77.5511 31.5247 76.879 34.7375C73.7193 35.6294 70.6571 36.8358 67.7381 38.3387C66.7746 38.8321 66.0715 39.2361 65.6053 39.5041C65.1391 39.7722 64.9099 39.8926 64.9099 39.8926L65.5976 39.4769C66.0598 39.205 66.763 38.7971 67.7225 38.3115C70.638 36.7919 73.7008 35.5735 76.8635 34.6753L76.8402 34.6986C77.5045 31.482 78.3086 27.6011 79.2915 22.8539V22.8189H79.3264L99.3332 22.4537H99.3798V22.5004C100.269 26.1288 101.217 29.9747 102.266 34.2441L102.216 34.1936C106.463 35.2398 110.552 36.8467 114.375 38.9719H114.301C117.514 36.8586 120.851 34.6714 124.402 32.3406L124.456 32.3056L124.499 32.3483L138.88 46.2481L138.927 46.2948L138.892 46.353L132.61 56.6983V56.6089C134.873 60.3539 136.625 64.3844 137.82 68.5935L137.75 68.5314L149.591 70.9904H149.665V71.0643C149.781 77.5674 149.9 84.2363 150.022 91.071V91.1487H149.948L138.201 94.0312L138.274 93.9613C137.228 98.2095 135.618 102.299 133.488 106.121V106.02C135.674 109.355 137.883 112.722 140.116 116.12L140.162 116.186L140.104 116.244L126.208 130.618L126.154 130.677L126.084 130.634L115.746 124.368H115.851C112.107 126.625 108.08 128.374 103.875 129.569L103.948 129.492C103.101 133.559 102.258 137.595 101.481 141.333V141.41H101.4L81.397 141.76H81.3155L81.296 141.682C80.3054 137.63 79.3187 133.617 78.4174 129.935L78.4912 130.008C74.2428 128.958 70.1527 127.349 66.3279 125.222H66.4289L56.3284 131.85L56.2663 131.889L56.2119 131.838L41.8381 117.934L41.7876 117.888L41.8265 117.826L48.0926 107.488V107.581C45.8338 103.834 44.0845 99.8024 42.8909 95.5929L42.953 95.6512L31.05 93.2542H30.9879V93.1882C30.8674 86.1684 30.7509 79.4826 30.646 73.1854V73.1271H30.7043L42.4519 70.2523L42.4014 70.3028C43.453 66.0483 45.0664 61.9527 47.1991 58.124V58.1861L40.595 48.0857L40.5717 48.0507L40.6027 48.0235L54.5103 33.6497H54.5298H54.5531L64.8478 39.9159Z" fill="#263238"/>
<path d="M74.2266 21.1758C76.5575 18.3205 80.2208 16.7976 83.8803 16.3664C85.4342 16.1838 86.4054 16.4519 87.9011 16.8559C89.4012 17.2132 90.7264 18.0898 91.6421 19.3305C92.7027 20.8339 93.5845 22.5199 93.7943 24.3536C94.0593 26.2279 94.1504 28.1226 94.0663 30.0137C93.9799 31.914 93.3694 33.7533 92.3026 35.3281L87.5009 36.1478C84.8515 36.2372 82.1632 36.3265 79.5798 35.7205C76.9964 35.1145 74.4869 33.7276 73.1039 31.4472C71.1848 28.3355 71.8957 24.0272 74.2266 21.1758Z" fill="#263238"/>
<path d="M90.7095 38.1213C90.7095 38.1213 90.7872 38.2378 90.997 38.3738C91.2974 38.5561 91.6343 38.6702 91.9837 38.7079C92.5125 38.7657 93.0462 38.657 93.5104 38.3971C94.0736 38.0556 94.4838 37.5105 94.656 36.8747C94.8281 36.2389 94.749 35.5613 94.435 34.9823C94.1641 34.5236 93.7566 34.1609 93.2696 33.9451C92.949 33.7995 92.5998 33.7278 92.2479 33.7353C92.1141 33.7249 91.98 33.7504 91.8594 33.8091C92.3119 33.8322 92.756 33.9402 93.1685 34.1277C93.5973 34.3492 93.9523 34.6907 94.1903 35.1105C94.4558 35.6327 94.5182 36.2348 94.3653 36.8003C94.2125 37.3658 93.8552 37.8545 93.3628 38.1718C92.9459 38.4127 92.4685 38.5287 91.9876 38.5058C91.5413 38.4583 91.1079 38.3279 90.7095 38.1213Z" fill="#C5221F"/>
<path d="M69.662 34.5433C69.7061 33.9959 69.8755 33.4659 70.157 32.9944C70.4386 32.5229 70.8248 32.1224 71.2859 31.824C71.7534 31.5407 72.2988 31.4132 72.8434 31.46C73.388 31.5068 73.9037 31.7254 74.316 32.0842L75.0735 32.9855C75.6545 33.2568 76.1373 33.701 76.4558 34.2574C76.7743 34.8138 76.913 35.4551 76.8528 36.0934C76.7655 36.7324 76.4976 37.3333 76.0806 37.8254C75.6636 38.3174 75.1147 38.6802 74.4986 38.871C73.878 39.0454 73.2229 39.0573 72.5964 38.9056C71.9698 38.7539 71.3928 38.4436 70.9207 38.0047C70.4621 37.5609 70.1105 37.0187 69.8925 36.419C69.6744 35.8194 69.5956 35.1779 69.662 34.5433Z" fill="#263238"/>
<path d="M70.6132 37.7794C70.429 37.4959 70.3392 37.1614 70.3568 36.8237C70.3957 36.2099 70.8424 35.4058 71.4524 34.6676C71.9875 34.0309 72.6405 33.5033 73.3753 33.1137C73.9386 32.8107 74.3271 32.7019 74.3155 32.6631C73.9621 32.6939 73.6186 32.7956 73.3054 32.9622C72.5209 33.3224 71.8267 33.8533 71.2737 34.5161C70.9666 34.8704 70.7056 35.2619 70.4967 35.6816C70.311 36.0279 70.206 36.4117 70.1898 36.8043C70.1801 37.079 70.2547 37.3501 70.4035 37.5812C70.5084 37.7366 70.6055 37.791 70.6132 37.7794Z" fill="#174EA6"/>
<path d="M72.9366 39.1974C73.0143 39.1974 72.688 37.7406 73.1503 36.0274C73.6125 34.3142 74.5837 33.2031 74.5177 33.1604C74.2614 33.354 74.045 33.5954 73.8806 33.8713C73.442 34.5099 73.1173 35.2197 72.9211 35.9691C72.724 36.7174 72.6595 37.4945 72.7307 38.265C72.7398 38.586 72.8097 38.9024 72.9366 39.1974Z" fill="#174EA6"/>
<path d="M87.5004 43.9524C87.4693 42.2664 87.4305 40.8873 87.4305 40.8951C87.4305 40.9028 91.3464 40.4638 92.4263 35.4563C92.9624 32.9623 93.0634 28.8289 93.0362 25.4452C93.0129 22.3956 90.4179 18.2467 86.6574 18.235L84.983 18.0408L78.5848 20.5853C78.1391 20.6075 77.718 20.7963 77.405 21.1143C77.092 21.4324 76.9099 21.8564 76.8949 22.3024L76.8716 44.0573L83.2621 59.985L87.3256 52.7243L87.5004 43.9524Z" fill="#A8605D"/>
<path d="M84.9016 34.2753C84.9299 34.0932 85.0039 33.9212 85.1166 33.7754C85.2293 33.6296 85.3771 33.5147 85.5462 33.4414C85.7153 33.3681 85.9002 33.3388 86.0836 33.3562C86.2671 33.3737 86.4432 33.4373 86.5954 33.5411C86.8014 33.6998 86.9615 33.9105 87.0591 34.1515C87.1567 34.3925 87.1884 34.6551 87.1509 34.9124C87.0407 35.0668 86.8988 35.1959 86.7346 35.2911C86.5705 35.3862 86.3879 35.4452 86.1992 35.4641C86.1397 35.468 86.08 35.468 86.0205 35.4641C85.7215 35.465 85.4336 35.3509 85.2163 35.1455C85.101 35.034 85.0128 34.8977 84.9582 34.7469C84.9037 34.596 84.8844 34.4348 84.9016 34.2753Z" fill="#844949"/>
<path d="M91.5597 29.3843C91.5527 29.5537 91.4796 29.7135 91.3562 29.8297C91.2327 29.9458 91.0688 30.0091 90.8993 30.0059C90.8164 30.008 90.7339 29.9934 90.6567 29.9631C90.5795 29.9328 90.5091 29.8874 90.4497 29.8294C90.3903 29.7715 90.3432 29.7023 90.311 29.6258C90.2788 29.5494 90.2622 29.4673 90.2622 29.3843C90.2693 29.215 90.3423 29.0551 90.4658 28.939C90.5892 28.8228 90.7532 28.7596 90.9226 28.7628C91.0055 28.7607 91.088 28.7752 91.1653 28.8055C91.2425 28.8359 91.3128 28.8813 91.3722 28.9392C91.4316 28.9972 91.4788 29.0664 91.511 29.1428C91.5432 29.2193 91.5598 29.3014 91.5597 29.3843Z" fill="#263238"/>
<path d="M91.7895 27.3137C91.7079 27.3953 91.234 27.0029 90.5347 26.968C89.8355 26.933 89.3071 27.2516 89.2372 27.1622C89.1673 27.0729 89.2916 26.9757 89.5208 26.8242C89.8347 26.6301 90.2015 26.5391 90.5697 26.564C90.9339 26.5853 91.282 26.7213 91.5642 26.9524C91.7701 27.1234 91.8323 27.2788 91.7895 27.3137Z" fill="#263238"/>
<path d="M87.4038 32.6049C87.7785 32.5108 88.1634 32.4625 88.5498 32.4611C88.7285 32.4611 88.8994 32.4262 88.9382 32.3096C88.9641 32.126 88.9329 31.9389 88.8489 31.7735C88.7065 31.3307 88.5549 30.8684 88.3944 30.3867C87.7689 28.4132 87.3261 26.7932 87.4076 26.7699C87.4892 26.7466 88.0603 28.3238 88.6857 30.2973L89.1131 31.692C89.2158 31.912 89.2351 32.1619 89.1674 32.3951C89.1388 32.4569 89.0961 32.5112 89.0429 32.5537C88.9896 32.5962 88.9272 32.6257 88.8606 32.6398C88.7613 32.663 88.6593 32.6722 88.5575 32.667C88.1719 32.6956 87.7841 32.6747 87.4038 32.6049Z" fill="#263238"/>
<path d="M87.4309 40.8951C85.0459 40.8017 82.7339 40.0471 80.7529 38.7157C80.7529 38.7157 82.3651 42.3247 87.4581 42.1266L87.4309 40.8951Z" fill="#844949"/>
<path d="M85.321 32.9739C85.4337 32.9739 85.3948 33.7509 86.0125 34.3064C86.6302 34.8619 87.4421 34.8425 87.446 34.9474C87.446 34.994 87.2556 35.0834 86.9138 35.0756C86.4693 35.0573 86.0455 34.8825 85.7173 34.5822C85.4022 34.2952 85.2113 33.8967 85.185 33.4712C85.1734 33.1526 85.2705 32.9701 85.321 32.9739Z" fill="#263238"/>
<path d="M91.6228 24.8042C91.4907 24.9557 91.0167 24.7653 90.4573 24.7265C89.8979 24.6876 89.3812 24.7731 89.2919 24.6022C89.2492 24.5167 89.3346 24.3613 89.5561 24.2137C89.8541 24.0503 90.1938 23.9786 90.5325 24.0076C90.8712 24.0367 91.1937 24.1651 91.4596 24.3769C91.6228 24.5633 91.6811 24.7304 91.6228 24.8042Z" fill="#263238"/>
<path d="M83.8835 29.0504C83.8793 29.2199 83.9415 29.3843 84.057 29.5084C84.1724 29.6326 84.3319 29.7066 84.5012 29.7147C84.5835 29.7227 84.6665 29.7142 84.7455 29.6897C84.8245 29.6652 84.8978 29.6251 84.9611 29.572C85.0244 29.5188 85.0764 29.4535 85.1142 29.38C85.152 29.3064 85.1747 29.2261 85.181 29.1436C85.1853 28.9737 85.1232 28.8089 85.0078 28.6841C84.8925 28.5594 84.733 28.4845 84.5633 28.4754C84.4806 28.4669 84.3971 28.4751 84.3176 28.4997C84.2382 28.5242 84.1645 28.5645 84.1011 28.6182C84.0376 28.6719 83.9856 28.7379 83.9482 28.8121C83.9108 28.8864 83.8888 28.9674 83.8835 29.0504Z" fill="#263238"/>
<path d="M82.2208 27.0652C82.2985 27.1507 82.7997 26.7933 83.4989 26.8088C84.1982 26.8244 84.7032 27.1973 84.7809 27.0963C84.8586 26.9953 84.7382 26.9059 84.5167 26.7389C84.2196 26.5228 83.8625 26.4046 83.495 26.4009C83.1302 26.3944 82.7727 26.5031 82.4733 26.7117C82.2558 26.8749 82.182 27.0264 82.2208 27.0652Z" fill="#263238"/>
<path d="M82.7219 25.659C82.8423 25.8221 83.3279 25.659 83.9067 25.659C84.4856 25.659 84.9751 25.7833 85.0722 25.6201C85.1266 25.5385 85.0489 25.3793 84.8391 25.2316C84.5549 25.0438 84.2201 24.9475 83.8795 24.9558C83.5412 24.9614 83.2129 25.0713 82.9394 25.2705C82.7374 25.4336 82.6675 25.5968 82.7219 25.659Z" fill="#263238"/>
<path d="M76.887 29.4428L77.7611 30.3518C81.5449 26.7273 88.9415 17.6602 88.5297 18.2001C86.8048 17.5544 84.9453 17.3527 83.1221 17.6135C80.3095 18.0914 74.964 19.4977 75.0534 22.8192C75.1427 26.1407 76.887 29.4428 76.887 29.4428Z" fill="#263238"/>
<path d="M74.3546 32.3097C74.3833 32.044 74.395 31.7767 74.3896 31.5094C74.4212 30.7849 74.5174 30.0647 74.6771 29.3573C75.2363 27.0228 76.3564 24.8599 77.9403 23.0561C79.5409 21.268 81.4066 19.7364 83.4723 18.5148C84.2492 18.0331 84.9096 17.6718 85.3603 17.4231C85.6013 17.311 85.8337 17.1811 86.0557 17.0347C85.9874 17.0469 85.9218 17.0706 85.8614 17.1046C85.7371 17.1629 85.5506 17.2406 85.3175 17.3571C84.8514 17.5785 84.1871 17.9243 83.3751 18.3866C81.2641 19.5774 79.3636 21.1078 77.7499 22.9163C76.1396 24.7462 75.0218 26.9562 74.5023 29.3378C74.3557 30.0563 74.2828 30.7878 74.2847 31.5211C74.2847 31.7814 74.308 31.9834 74.3158 32.1194C74.3207 32.1842 74.3338 32.2481 74.3546 32.3097Z" fill="#174EA6"/>
<path d="M83.8841 16.817C83.8138 16.8285 83.7457 16.8508 83.6821 16.8831C83.5539 16.9297 83.3636 17.0113 83.1266 17.12C82.6449 17.3337 81.9612 17.6639 81.1376 18.1223C80.1746 18.6595 79.2421 19.2496 78.3444 19.8899C77.2262 20.6576 76.2026 21.5548 75.2948 22.5626C74.8267 23.0981 74.4345 23.6955 74.1294 24.338C73.8557 24.9387 73.6648 25.5739 73.5622 26.226C73.4018 27.3248 73.4018 28.441 73.5622 29.5397C73.6643 30.2755 73.8043 31.0056 73.9818 31.7269C74.04 31.9833 74.0944 32.1775 74.1294 32.3135C74.1427 32.3827 74.1662 32.4494 74.1993 32.5116C74.1763 32.2408 74.1334 31.972 74.0711 31.7075C73.9779 31.1908 73.8341 30.4449 73.7293 29.5164C73.5917 28.4347 73.6048 27.3391 73.7681 26.261C73.8734 25.6299 74.0629 25.0158 74.3314 24.4351C74.6256 23.8131 75.0033 23.2341 75.4541 22.7141C76.3481 21.7207 77.3531 20.8331 78.4493 20.0686C79.3418 19.4253 80.2662 18.8275 81.2192 18.2777C82.0272 17.8038 82.6993 17.4541 83.1616 17.2133C83.4102 17.0959 83.6515 16.9635 83.8841 16.817Z" fill="#174EA6"/>
<path d="M76.8174 29.5437C76.9808 29.4115 77.1316 29.2646 77.268 29.1047L78.4335 27.8577C79.4085 26.8011 80.741 25.3248 82.2056 23.6893C83.6702 22.0538 84.9832 20.5582 85.9272 19.4704L87.0344 18.1729C87.1797 18.0201 87.3098 17.8536 87.4229 17.6757C87.2595 17.805 87.1098 17.9508 86.9761 18.1108L85.8107 19.3578C84.8356 20.4183 83.4798 21.8907 82.0386 23.5301C80.5973 25.1694 79.257 26.6612 78.3169 27.749L77.2097 29.0465C77.0627 29.1987 76.9312 29.3653 76.8174 29.5437Z" fill="#174EA6"/>
<path d="M77.6332 30.9033C77.6332 30.5148 77.2447 29.6135 76.8989 29.532C75.9122 29.3222 74.1174 29.3066 73.962 31.8279C73.7484 35.2776 77.2563 34.7803 77.268 34.6793C77.2796 34.5783 77.5632 32.2047 77.6332 30.9033Z" fill="#A8605D"/>
<path d="M76.5224 33.2614C76.5224 33.2614 76.4603 33.2964 76.3554 33.3391C76.212 33.3964 76.052 33.3964 75.9086 33.3391C75.5512 33.1837 75.2793 32.5855 75.3026 31.9639C75.3104 31.6671 75.3862 31.3761 75.524 31.1131C75.5622 31.0076 75.6257 30.913 75.709 30.8378C75.7924 30.7626 75.8929 30.7091 76.0019 30.6819C76.0717 30.6682 76.1441 30.6788 76.207 30.712C76.27 30.7453 76.3196 30.7991 76.3476 30.8645C76.3865 30.9655 76.3476 31.0316 76.3787 31.0393C76.4098 31.0471 76.4564 30.9888 76.437 30.8412C76.4225 30.7561 76.3802 30.6782 76.3165 30.6198C76.2716 30.5805 76.2192 30.5506 76.1624 30.532C76.1057 30.5133 76.0458 30.5061 75.9863 30.511C75.8429 30.5306 75.7069 30.5865 75.5913 30.6736C75.4757 30.7606 75.3843 30.8758 75.3259 31.0083C75.1625 31.2982 75.0719 31.6235 75.0617 31.9561C75.0384 32.6515 75.357 33.3236 75.8387 33.5101C75.9298 33.5421 76.027 33.5534 76.123 33.5434C76.2191 33.5333 76.3117 33.502 76.3942 33.4518C76.5108 33.343 76.5341 33.2653 76.5224 33.2614Z" fill="#844949"/>
<path d="M76.9689 38.4127C76.9689 38.4127 76.8873 38.5331 76.6814 38.6652C76.3798 38.8481 76.0415 38.9622 75.6908 38.9993C75.162 39.0563 74.6285 38.9477 74.164 38.6885C73.6 38.3478 73.1894 37.8024 73.0178 37.1661C72.8463 36.5298 72.9271 35.8519 73.2433 35.2738C73.5142 34.815 73.9217 34.4524 74.4088 34.2366C74.7293 34.091 75.0785 34.0193 75.4305 34.0268C75.6791 34.0268 75.819 34.085 75.819 34.1006C75.3665 34.1236 74.9223 34.2317 74.5098 34.4191C74.0822 34.6409 73.7285 34.9824 73.492 35.402C73.2181 35.9216 73.1541 36.5265 73.3133 37.0919C73.464 37.6594 73.8233 38.1492 74.3194 38.4632C74.7356 38.7059 75.2135 38.822 75.6947 38.7973C76.1394 38.7484 76.5714 38.6181 76.9689 38.4127Z" fill="#C5221F"/>
<path d="M96.377 140.307L95.1727 129.873L85.4995 132.58L87.9392 142.588L96.377 140.307Z" fill="#A8605D"/>
<path d="M96.4864 140.26L98.1219 152.424L102.189 161.67C102.258 161.827 102.294 161.998 102.294 162.17C102.295 162.342 102.26 162.512 102.193 162.671C102.125 162.829 102.026 162.972 101.901 163.09C101.776 163.209 101.628 163.3 101.467 163.36C101.278 163.427 101.076 163.448 100.877 163.422C100.679 163.396 100.489 163.322 100.325 163.208C98.1957 161.728 90.3872 156.239 90.3173 155.341C90.2357 154.3 87.7378 142.626 87.7378 142.626L96.4864 140.26Z" fill="#C5221F"/>
<g opacity="0.6">
<path opacity="0.6" d="M101.467 163.375L90.2007 154.537L90.2823 155.05C90.3479 155.491 90.5682 155.895 90.9038 156.188C91.8168 156.965 94.3807 159.079 100.286 163.228C100.454 163.344 100.648 163.418 100.851 163.443C101.054 163.468 101.26 163.443 101.451 163.371L101.467 163.375Z" fill="white"/>
</g>
<g opacity="0.6">
<path opacity="0.6" d="M92.0573 150.237C92.2211 150.325 92.3477 150.47 92.414 150.643C92.4803 150.817 92.482 151.009 92.4186 151.185C92.3382 151.354 92.196 151.486 92.0212 151.554C91.8464 151.622 91.6522 151.62 91.4785 151.55C91.3012 151.459 91.1635 151.307 91.0918 151.121C91.0201 150.935 91.0195 150.73 91.09 150.544C91.1945 150.379 91.3572 150.259 91.5458 150.209C91.7344 150.158 91.9351 150.181 92.1079 150.272" fill="white"/>
</g>
<path d="M97.8576 158.519C97.9314 158.542 98.1062 157.863 98.7744 157.408C99.4426 156.953 100.122 156.996 100.126 156.922C100.13 156.849 99.9631 156.817 99.6718 156.825C99.2928 156.839 98.9263 156.964 98.619 157.187C98.3064 157.404 98.0636 157.708 97.9197 158.061C97.8187 158.329 97.8265 158.519 97.8576 158.519Z" fill="#263238"/>
<path d="M98.9768 160.003C99.0428 160.046 99.3653 159.591 99.9713 159.312C100.577 159.032 101.137 159.051 101.137 158.97C101.137 158.888 100.538 158.741 99.8625 159.067C99.1866 159.393 98.9108 159.98 98.9768 160.003Z" fill="#263238"/>
<path d="M95.9229 156.689C95.9889 156.736 96.4862 156.033 97.3797 155.524C98.2732 155.015 99.1239 154.902 99.1123 154.821C99.1006 154.739 98.1955 154.728 97.2437 155.291C96.2919 155.854 95.8607 156.662 95.9229 156.689Z" fill="#263238"/>
<path d="M95.1148 153.034C95.1614 153.1 95.7868 152.715 96.6687 152.544C97.5505 152.373 98.2576 152.478 98.2731 152.397C98.2887 152.315 97.5428 152.09 96.6143 152.28C95.6858 152.47 95.0682 152.983 95.1148 153.034Z" fill="#263238"/>
<path d="M94.5478 149.475C94.5944 149.538 95.2043 149.029 96.1327 148.924C97.0612 148.819 97.7721 149.149 97.8032 149.075C97.8343 149.001 97.6634 148.916 97.3565 148.799C96.9545 148.651 96.5225 148.603 96.0978 148.66C95.6738 148.711 95.2679 148.861 94.9129 149.099C94.6449 149.285 94.5244 149.452 94.5478 149.475Z" fill="#263238"/>
<path d="M96.0041 148.252C96.0186 148.095 95.9988 147.937 95.9458 147.789C95.8387 147.376 95.6512 146.988 95.3942 146.647C95.2268 146.38 94.9753 146.176 94.6794 146.068C94.5793 146.042 94.4735 146.046 94.3762 146.082C94.2789 146.117 94.1949 146.182 94.1355 146.266C94.0308 146.44 93.9935 146.646 94.0306 146.845C94.1224 147.248 94.3519 147.607 94.6794 147.859C95.0069 148.112 95.4121 148.242 95.8254 148.228C96.233 148.205 96.6245 148.061 96.9502 147.815C97.2759 147.568 97.5212 147.231 97.6551 146.845C97.6896 146.749 97.7022 146.646 97.6921 146.544C97.682 146.441 97.6495 146.343 97.5968 146.255C97.5359 146.17 97.4496 146.107 97.3503 146.075C97.2511 146.043 97.1442 146.043 97.0452 146.076C96.7567 146.188 96.5033 146.374 96.311 146.616C96.0229 146.931 95.7928 147.294 95.6311 147.688C95.5634 147.828 95.5225 147.98 95.5107 148.135C95.7568 147.631 96.0734 147.164 96.4508 146.748C96.6258 146.544 96.8487 146.386 97.0996 146.29C97.1539 146.272 97.2124 146.272 97.2668 146.289C97.3212 146.307 97.3687 146.341 97.4026 146.387C97.4289 146.448 97.4425 146.514 97.4425 146.581C97.4425 146.648 97.4289 146.714 97.4026 146.775C97.2749 147.102 97.0564 147.386 96.7727 147.592C96.4891 147.799 96.1523 147.92 95.8021 147.941C95.4492 147.952 95.103 147.843 94.8206 147.631C94.5381 147.419 94.3362 147.117 94.2481 146.775C94.2217 146.643 94.2423 146.506 94.3064 146.387C94.3375 146.338 94.3832 146.301 94.437 146.28C94.4907 146.259 94.5498 146.256 94.6055 146.27C94.8525 146.364 95.0652 146.531 95.2155 146.748C95.5647 147.199 95.8317 147.708 96.0041 148.252Z" fill="#263238"/>
<path d="M126.449 81.5496C117.903 79.9957 100.32 84.2923 100.32 84.2923L96.5557 79.984H76.7432L73.3013 88.0566L82.687 102.042L84.8819 110.282C84.8819 110.282 94.1665 108.813 93.7742 108.86C93.3818 108.906 99.7296 107.543 100.114 107.492C115.599 105.379 123.858 98.8525 128.473 94.2373C133.182 89.5057 129.709 82.1401 126.449 81.5496Z" fill="#263238"/>
<path d="M86.491 111.618C86.4482 111.338 86.3239 110.588 86.0714 109.05C85.9354 108.226 85.7645 107.224 85.547 106.07C85.4343 105.495 85.3139 104.882 85.1585 104.237C85.0847 103.914 85.007 103.58 84.9137 103.242C84.8632 103.075 84.8127 102.904 84.7506 102.733C84.6977 102.55 84.6093 102.378 84.4903 102.228L84.4631 102.353C88.1459 101.043 92.7455 99.3186 97.652 97.248C100.67 95.966 103.514 94.6685 106.02 93.3204C107.216 92.6986 108.362 91.987 109.45 91.1916C110.468 90.4418 111.373 89.692 112.224 89.0355C113.521 87.9477 114.992 87.0862 116.575 86.4871C116.829 86.3961 117.088 86.3208 117.352 86.2617C117.539 86.2086 117.73 86.167 117.923 86.1374L118.276 86.0753C118.318 86.07 118.358 86.0596 118.397 86.0442C118.355 86.0416 118.314 86.0416 118.273 86.0442L117.915 86.0908C117.721 86.113 117.529 86.148 117.34 86.1957C117.077 86.251 116.818 86.3211 116.563 86.4055C115.866 86.631 115.196 86.9306 114.563 87.299C113.723 87.7824 112.92 88.325 112.158 88.9228C111.299 89.5716 110.386 90.3136 109.372 91.0556C108.285 91.8391 107.141 92.5416 105.95 93.1573C103.448 94.4936 100.604 95.7834 97.5937 97.0654C92.6911 99.1321 88.0954 100.872 84.4243 102.197L84.3232 102.236L84.4009 102.325C84.4997 102.461 84.5758 102.612 84.6263 102.772C84.6884 102.939 84.7389 103.106 84.7855 103.273C84.8827 103.604 84.9642 103.934 85.038 104.256C85.1896 104.897 85.3178 105.511 85.4265 106.082C85.6557 107.247 85.8383 108.23 85.9859 109.05C86.1336 109.87 86.2579 110.499 86.3395 110.946C86.3822 111.163 86.4172 111.334 86.4443 111.439C86.4715 111.544 86.491 111.618 86.491 111.618Z" fill="#174EA6"/>
<path d="M74.2843 81.6L74.1095 84.23C74.1095 84.23 71.8835 88.4412 71.6815 92.2094C71.5611 94.4004 71.5145 97.6287 71.495 99.9479C71.4778 101.816 71.994 103.65 72.9829 105.235L78.8451 110.674L82.4735 124.073L87.1353 140.276L96.8473 137.766L95.4293 103.724C95.3943 99.0622 93.2733 93.6235 90.6199 87.9672L89.707 80.4812L74.2843 81.6Z" fill="#263238"/>
<path d="M96.8516 132.934C96.8391 132.887 96.8313 132.839 96.8282 132.79C96.8282 132.677 96.8088 132.538 96.7933 132.363C96.77 131.974 96.735 131.419 96.6884 130.723C96.6068 129.274 96.4942 127.227 96.3504 124.69C96.094 119.574 95.7366 112.542 95.3443 104.777C95.2199 102.834 95.2666 100.919 94.8548 99.1438C94.4713 97.4334 93.8056 95.7989 92.8852 94.3072C92.0469 92.9597 91.0066 91.7491 89.8006 90.7176C88.7414 89.826 87.565 89.0836 86.3043 88.5111C84.4781 87.6712 82.5081 87.1885 80.5004 87.0892C79.9556 87.0614 79.4097 87.0614 78.8649 87.0892L78.4376 87.1086H78.2783C79.0105 86.9944 79.7521 86.9515 80.4927 86.9804C82.5224 87.0412 84.5206 87.4991 86.3742 88.3285C87.6564 88.8965 88.8539 89.6391 89.9327 90.535C91.1664 91.5747 92.2306 92.8002 93.0872 94.1673C94.0309 95.6808 94.7138 97.342 95.1073 99.0816C95.5307 100.9 95.4958 102.823 95.6084 104.757C95.9697 112.527 96.296 119.558 96.533 124.675C96.6379 127.208 96.7234 129.267 96.7816 130.712C96.8049 131.411 96.8244 131.959 96.836 132.355C96.836 132.53 96.836 132.67 96.836 132.782C96.8474 132.832 96.8526 132.883 96.8516 132.934Z" fill="#174EA6"/>
<path d="M90.1188 111.665C90.0489 111.63 90.651 110.231 91.4591 108.533C92.2671 106.836 92.9858 105.492 93.0557 105.523C93.1256 105.554 92.5235 106.96 91.7116 108.654C90.8997 110.348 90.1887 111.699 90.1188 111.665Z" fill="#174EA6"/>
<path d="M83.3555 107.03C83.4294 107.003 83.744 107.655 84.0393 108.487C84.3345 109.318 84.5326 110.013 84.4627 110.041C84.3928 110.068 84.0742 109.415 83.7751 108.584C83.476 107.752 83.2817 107.057 83.3555 107.03Z" fill="#174EA6"/>
<path d="M78.4917 103.009C78.5131 103.098 78.5248 103.189 78.5266 103.281C78.5266 103.491 78.5538 103.747 78.5732 104.058C78.6121 104.773 78.6626 105.74 78.7248 106.913C78.7636 109.334 79.5017 112.593 80.3136 116.186C81.1256 119.78 82.0113 123 82.7028 125.312C83.0408 126.477 83.3516 127.398 83.5691 128.031C83.702 128.355 83.8148 128.688 83.9071 129.026C83.8547 128.951 83.8117 128.87 83.7789 128.785C83.7051 128.626 83.5924 128.396 83.4681 128.07C83.2195 127.441 82.8776 126.516 82.5124 125.37C81.7743 123.063 80.8847 119.842 80.0417 116.245C79.1987 112.647 78.515 109.353 78.5266 106.921C78.4839 105.709 78.4684 104.734 78.4645 104.054C78.4645 103.743 78.4645 103.487 78.4645 103.277C78.4589 103.187 78.4681 103.096 78.4917 103.009Z" fill="#174EA6"/>
<path d="M100.456 86.2617C100.48 86.3083 99.9164 86.5453 99.1511 87.1436C98.1629 87.93 97.3571 88.9214 96.7891 90.0494C96.2307 91.1845 95.8632 92.4038 95.7014 93.6584C95.5732 94.6218 95.5654 95.2317 95.5188 95.2317C95.4792 95.0929 95.4634 94.9484 95.4722 94.8044C95.4596 94.4156 95.4713 94.0263 95.5071 93.639C95.6125 92.3466 95.9632 91.0862 96.5405 89.9251C97.1236 88.7598 97.9792 87.7524 99.0345 86.9882C99.3523 86.7608 99.692 86.5656 100.048 86.4055C100.175 86.3335 100.313 86.2848 100.456 86.2617Z" fill="#174EA6"/>
<path d="M114.982 85.5042C115.032 85.5703 114.17 86.2812 113.311 87.334C112.453 88.3868 111.928 89.3735 111.854 89.3347C111.781 89.2958 112.204 88.2391 113.094 87.1553C113.983 86.0714 114.943 85.446 114.982 85.5042Z" fill="#174EA6"/>
<path d="M91.9989 92.866C91.9523 92.866 91.9989 92.1745 91.9679 91.0712C91.9025 89.6288 91.7337 88.1929 91.4628 86.7746L90.6548 82.5014C90.5196 81.9136 90.4312 81.3161 90.3906 80.7144C90.589 81.2828 90.7423 81.8661 90.849 82.4586C91.0899 83.5464 91.4356 85.042 91.7387 86.7319C92.0147 88.1621 92.1578 89.6147 92.166 91.0712C92.1643 91.5125 92.1396 91.9534 92.0922 92.3921C92.0848 92.5538 92.0534 92.7135 91.9989 92.866Z" fill="#174EA6"/>
<path d="M91.9643 81.3942C91.9643 81.3942 92.0109 81.3243 92.143 81.2894C92.3311 81.2492 92.5273 81.2753 92.6985 81.3632C92.8326 81.4308 92.9455 81.5339 93.025 81.6613C93.1045 81.7888 93.1474 81.9356 93.1491 82.0857C93.1478 82.2725 93.0899 82.4545 92.9831 82.6078C92.8764 82.761 92.7257 82.8784 92.5509 82.9443C92.3724 83.0031 92.1797 83.0024 92.0017 82.9421C91.8237 82.8819 91.6701 82.7654 91.5641 82.6102C91.4758 82.4879 91.4239 82.3432 91.4142 82.1926C91.4046 82.0421 91.4377 81.8919 91.5097 81.7594C91.5999 81.5879 91.751 81.4563 91.9332 81.3904C92.0614 81.3476 92.1352 81.3632 92.1391 81.3904C92.143 81.4176 91.8477 81.4875 91.6885 81.8565C91.6445 81.9674 91.6329 82.0884 91.6551 82.2055C91.6773 82.3227 91.7323 82.4311 91.8137 82.5182C91.8951 82.6053 91.9996 82.6675 92.1149 82.6976C92.2303 82.7276 92.3519 82.7242 92.4654 82.6879C92.5862 82.6403 92.6907 82.5589 92.7665 82.4535C92.8423 82.3481 92.8861 82.2232 92.8927 82.0935C92.8977 81.9854 92.8737 81.878 92.8231 81.7824C92.7726 81.6867 92.6974 81.6064 92.6053 81.5496C92.4105 81.4384 92.1883 81.3845 91.9643 81.3942Z" fill="#174EA6"/>
<path d="M93.04 45.1412C93.04 45.1412 99.3451 47.3595 100.033 51.3025C100.72 55.2456 103.949 69.4135 103.949 69.4135L122.984 71.8803L120.77 77.0277C120.77 77.0277 99.3567 78.1115 98.3583 77.0277C97.3599 75.9438 93.04 45.1412 93.04 45.1412Z" fill="#174EA6"/>
<path d="M73.7407 81.7282C74.0084 80.3694 74.3626 79.029 74.8012 77.7152L71.6118 53.5867L69.3975 45.5491L76.53 43.6067C79.1483 47.6352 86.8363 47.9616 87.9474 43.6067L93.0404 45.1412C93.0404 45.1412 100.538 58.7108 100.188 63.4503C99.7999 68.6481 101.459 77.0471 101.459 77.0471C101.459 77.0471 101.641 79.8169 99.7183 81.1144L73.7407 81.7282Z" fill="#174EA6"/>
<path d="M69.3973 45.5374C69.3973 45.5374 65.3843 47.6235 64.4364 51.5627C63.7527 54.3986 62.9369 72.0434 64.4364 75.1085C65.9359 78.1736 67.113 80.1237 70.3452 80.6715C73.5773 81.2193 93.4753 80.4035 93.4753 80.4035L94.5436 72.7193L73.2976 69.5571C73.2976 69.5571 72.7654 53.7498 72.5207 52.6543" fill="#174EA6"/>
<path d="M76.5301 43.6301C76.5301 43.6301 76.1844 41.9946 76.5301 41.8431C76.8759 41.6916 88.0641 42.15 88.1418 42.5307C88.1819 43.079 88.1819 43.6295 88.1418 44.1778C88.1418 44.1778 86.9181 47.2002 84.1055 47.4139C81.2929 47.6275 76.6778 44.7217 76.5301 43.6301Z" fill="#174EA6"/>
<path d="M96.9253 73.6983L102.457 73.3098L105.111 75.1085L107.395 78.1852C107.291 78.333 107.138 78.4399 106.964 78.4874C106.789 78.5349 106.604 78.5201 106.439 78.4455L107.29 79.475C107.244 79.5678 107.179 79.6501 107.099 79.7167C107.019 79.7832 106.927 79.8326 106.827 79.8618C106.728 79.891 106.623 79.8993 106.521 79.8862C106.418 79.8731 106.318 79.8389 106.229 79.7858L106.754 80.5977C106.465 80.6949 106.152 80.693 105.864 80.5924C105.576 80.4918 105.33 80.2982 105.165 80.0422C104.624 79.2708 104.031 78.5374 103.39 77.8473L101.366 77.1752L103.339 79.137L104.435 80.8774C104.435 80.8774 104.236 81.4252 103.836 81.1727C103.29 80.676 102.788 80.1341 102.333 79.5527L100.002 78.0687C100.002 78.0687 98.3549 78.8146 97.8421 78.8223C97.3293 78.8301 95.6705 77.7696 95.6705 77.7696L94.0933 78.8146L94.5167 73.3098L96.9253 73.6983Z" fill="#A8605D"/>
<path d="M107.306 79.4556C107.054 79.2209 106.827 78.9605 106.63 78.6786C106.241 78.1775 105.697 77.4782 105.114 76.6935L104.559 75.9437L104.586 75.967C103.949 75.5785 103.397 75.2328 103.013 74.9803C102.797 74.8603 102.596 74.7156 102.415 74.5491C102.646 74.6307 102.868 74.7389 103.075 74.8715C103.463 75.0929 104.042 75.4154 104.691 75.7961L105.254 76.5459C105.837 77.3228 106.354 78.0415 106.719 78.566C106.946 78.8405 107.143 79.1388 107.306 79.4556Z" fill="#844949"/>
<path d="M106.637 80.384C106.415 80.1621 106.217 79.9172 106.047 79.6537C105.705 79.1875 105.239 78.5349 104.738 77.8045L104.244 77.0742L104.283 77.1091C103.572 76.7992 102.885 76.4369 102.228 76.0253C102.962 76.2752 103.678 76.5777 104.369 76.9304H104.392V76.9537L104.893 77.6763C105.394 78.4028 105.837 79.071 106.152 79.5604C106.345 79.815 106.508 80.0914 106.637 80.384Z" fill="#844949"/>
<path d="M73.6165 80.7687C73.6474 80.7637 73.6788 80.7637 73.7097 80.7687H73.9972L75.1044 80.7377L79.2766 80.6522L93.9068 80.4075L93.8174 80.4929C94.0117 78.0843 94.2253 75.466 94.4468 72.7233L94.5322 72.8321L89.416 72.0551L73.2863 69.6388H73.2086V69.5572C73.3812 65.4699 73.3125 61.376 73.0027 57.2968C72.8861 55.8167 72.7579 54.659 72.6686 53.8704C72.622 53.4819 72.587 53.1828 72.5637 52.9691C72.5637 52.872 72.5637 52.7943 72.5365 52.736C72.5093 52.6777 72.5365 52.6583 72.5365 52.6583C72.5365 52.6583 72.5365 52.6816 72.5365 52.7321C72.5365 52.7826 72.5598 52.8681 72.5754 52.9652C72.6064 53.175 72.6492 53.478 72.7074 53.8626C72.8123 54.6396 72.9561 55.805 73.0959 57.289C73.447 61.3684 73.543 65.4658 73.3834 69.5572L73.3096 69.4679L89.4432 71.857L94.5594 72.634H94.6488V72.7272C94.4235 75.4466 94.2059 78.0766 94.0039 80.4968V80.5784H93.9185L79.2844 80.7493L75.1121 80.7843H73.6165V80.7687Z" fill="#263238"/>
<path d="M88.1419 42.5306C88.1796 42.7133 88.1965 42.8997 88.1924 43.0862C88.1924 43.2649 88.1924 43.4747 88.1924 43.7427C88.1917 44.041 88.1337 44.3364 88.0215 44.6129C87.7721 44.8861 87.4456 45.0771 87.0853 45.1607C86.6952 45.2653 86.2996 45.3483 85.9004 45.4093C84.9914 45.5594 84.0712 45.6309 83.15 45.6229C81.471 45.6084 79.8034 45.3466 78.2007 44.846C77.7078 44.7097 77.2433 44.486 76.8294 44.1856C76.7191 44.1015 76.6175 44.0065 76.5264 43.902C76.491 43.8672 76.4621 43.8264 76.4409 43.7815C76.4409 43.7815 76.5847 43.9253 76.876 44.1234C77.2975 44.3909 77.7592 44.589 78.2435 44.71C79.8406 45.1601 81.4907 45.3952 83.15 45.4093C84.0601 45.417 84.9695 45.3521 85.8693 45.215C86.2616 45.1592 86.6506 45.0827 87.0348 44.9858C87.2057 44.9425 87.3713 44.88 87.5281 44.7994C87.6015 44.764 87.6717 44.7224 87.7379 44.6751C87.7994 44.6372 87.8523 44.5869 87.8933 44.5274C88.0005 44.2707 88.0623 43.9973 88.0759 43.7194C88.0992 43.4708 88.1109 43.2532 88.1186 43.0745C88.1131 42.8929 88.1209 42.7111 88.1419 42.5306Z" fill="#263238"/>
<path d="M78.3554 44.8226C78.0048 44.4295 77.8016 43.927 77.7805 43.4007C77.6931 42.8798 77.7921 42.3447 78.0602 41.8895C77.9911 42.3836 77.9651 42.8827 77.9825 43.3813C78.0664 43.8713 78.1911 44.3534 78.3554 44.8226Z" fill="#263238"/>
<path d="M80.6591 41.9012C80.7213 41.9012 80.5892 42.6782 80.6164 43.6067C80.6436 44.5351 80.8068 45.2966 80.7485 45.3121C80.3336 44.218 80.3021 43.0156 80.6591 41.9012Z" fill="#263238"/>
<path d="M83.5654 45.4713C83.4741 44.9116 83.448 44.3432 83.4877 43.7775C83.4648 43.2113 83.5065 42.6444 83.612 42.0876C83.7079 42.6468 83.734 43.2158 83.6897 43.7814C83.7152 44.3477 83.6735 44.9149 83.5654 45.4713Z" fill="#263238"/>
<path d="M86.7431 42.3635C86.8912 42.8523 86.9165 43.37 86.8169 43.8708C86.7741 44.3798 86.6045 44.87 86.3235 45.2966C86.2653 45.2732 86.5022 44.6478 86.6149 43.8436C86.7276 43.0395 86.6809 42.3635 86.7431 42.3635Z" fill="#263238"/>
<path d="M96.5365 66.6436C96.5333 66.4613 96.5476 66.2792 96.5792 66.0997C96.622 65.7501 96.6997 65.2489 96.789 64.6313C97.0821 63.03 97.154 61.3961 97.0027 59.7753C96.8027 58.1604 96.4648 56.5657 95.9926 55.0086C95.8295 54.4337 95.6935 53.9558 95.5847 53.579C95.5274 53.4067 95.4846 53.23 95.4565 53.0507C95.5419 53.2112 95.6096 53.3805 95.6585 53.5557C95.7751 53.8859 95.9421 54.3676 96.1286 54.9659C96.6467 56.5225 97.0072 58.1272 97.2047 59.7558C97.361 61.3931 97.2693 63.0446 96.9328 64.6546C96.8201 65.2412 96.7308 65.7307 96.6569 66.1114C96.6347 66.2924 96.5944 66.4707 96.5365 66.6436Z" fill="#263238"/>
<path d="M126.64 65.1401L118.932 82.1905C118.725 82.5614 118.427 82.8737 118.066 83.0985C117.706 83.3233 117.294 83.4533 116.87 83.4764L81.312 83.4298C81.3542 83.0687 81.5259 82.7351 81.7951 82.4908C82.0644 82.2465 82.4131 82.1081 82.7766 82.1012L96.2685 81.8021L103.176 65.2295C103.283 64.9705 103.463 64.7488 103.695 64.5919C103.928 64.4351 104.201 64.3501 104.481 64.3476L126.018 64.1845C126.132 64.1834 126.244 64.211 126.344 64.2648C126.444 64.3185 126.529 64.3966 126.591 64.4919C126.653 64.5871 126.69 64.6964 126.699 64.8098C126.707 64.9231 126.687 65.0367 126.64 65.1401Z" fill="#E0E0E0"/>
<path d="M126.64 65.1401C126.676 65.0796 126.697 65.0119 126.702 64.942C126.717 64.8386 126.708 64.7331 126.675 64.634C126.642 64.5349 126.586 64.4448 126.512 64.371C126.403 64.2566 126.257 64.1849 126.1 64.1689C125.929 64.1689 125.751 64.1689 125.553 64.1689H124.181L115.316 64.2039L109.1 64.2389H105.604H104.691C104.366 64.2126 104.041 64.2815 103.755 64.437C103.464 64.6064 103.237 64.8654 103.106 65.1751C102.982 65.4665 102.861 65.7617 102.737 66.057C100.756 70.8003 98.5493 76.0797 96.1873 81.7399L96.2805 81.6739L88.9888 81.8331L85.1894 81.9147L83.247 81.9574H82.7575C82.3707 81.9697 82.0011 82.1203 81.716 82.3819C81.4308 82.6436 81.249 82.9988 81.2036 83.3832V83.5036H81.3279L103.471 83.5269H116.435C116.614 83.5269 116.788 83.5269 116.971 83.5269C117.155 83.5137 117.336 83.4785 117.511 83.422C117.85 83.3192 118.163 83.1464 118.431 82.9149C118.698 82.6833 118.914 82.3982 119.065 82.0779C119.337 81.4641 119.609 80.8619 119.873 80.2792C121.971 75.598 123.672 71.8103 124.849 69.1842L126.19 66.1696L126.531 65.3927C126.609 65.214 126.644 65.1207 126.644 65.1207L126.512 65.3849C126.427 65.5636 126.306 65.8239 126.151 66.1618C125.832 66.8533 125.374 67.8634 124.772 69.1609L119.721 80.2248L118.906 82.0196C118.764 82.3209 118.559 82.5885 118.306 82.8048C118.053 83.0211 117.757 83.1812 117.437 83.2744C117.104 83.3661 116.756 83.399 116.412 83.3715H113.102L103.448 83.3482L81.3046 83.3094L81.4134 83.4298C81.4392 83.22 81.5108 83.0184 81.6232 82.8393C81.7895 82.5845 82.0333 82.3898 82.3185 82.2838C82.4593 82.2319 82.6076 82.2031 82.7575 82.1983H83.2431L85.1855 82.1556L88.9849 82.074L96.2805 81.9108H96.3466L96.3738 81.8487C98.7279 76.1846 100.927 70.8974 102.896 66.1541C103.021 65.8588 103.141 65.5636 103.265 65.2722C103.378 64.9972 103.579 64.7676 103.836 64.6196C104.097 64.4789 104.392 64.4156 104.687 64.437H105.6L109.096 64.4059L115.312 64.3476L124.177 64.2466L125.549 64.2272C125.747 64.2272 125.937 64.2272 126.092 64.2272C126.24 64.242 126.377 64.308 126.481 64.4137C126.553 64.4837 126.608 64.5688 126.643 64.6628C126.678 64.7569 126.692 64.8576 126.683 64.9576C126.673 65.0193 126.659 65.0803 126.64 65.1401Z" fill="#263238"/>
<path d="M96.9248 83.6241C96.9682 83.567 97.0035 83.5043 97.0297 83.4376C97.0996 83.29 97.1812 83.1074 97.2861 82.886C97.5114 82.3732 97.8183 81.6855 98.1874 80.8464C98.941 79.1177 99.9588 76.7208 101.058 74.0636C102.158 71.4064 103.14 68.9822 103.801 67.2263C104.135 66.3445 104.403 65.6297 104.578 65.1324C104.656 64.9032 104.718 64.7128 104.772 64.5575C104.8 64.4916 104.818 64.4224 104.826 64.3516C104.784 64.4091 104.751 64.4734 104.729 64.5419L104.496 65.1013L103.657 67.168C102.927 68.9395 101.944 71.3364 100.86 73.982C99.7763 76.6275 98.7779 79.0322 98.0475 80.7882C97.7057 81.6389 97.4221 82.3421 97.2084 82.8588L96.9909 83.4259C96.9597 83.4886 96.9375 83.5553 96.9248 83.6241Z" fill="#174EA6"/>
<path d="M110.875 73.407C110.875 73.6254 110.94 73.8388 111.062 74.0204C111.183 74.2019 111.356 74.3433 111.557 74.4267C111.759 74.5101 111.981 74.5317 112.195 74.4888C112.41 74.4459 112.606 74.3404 112.76 74.1858C112.914 74.0311 113.019 73.8341 113.061 73.6198C113.103 73.4056 113.081 73.1836 112.997 72.9821C112.913 72.7806 112.771 72.6085 112.589 72.4878C112.407 72.367 112.193 72.3029 111.975 72.3037C111.83 72.3037 111.687 72.3323 111.553 72.3878C111.42 72.4433 111.298 72.5246 111.196 72.6271C111.094 72.7296 111.013 72.8512 110.958 72.9851C110.903 73.1189 110.875 73.2623 110.875 73.407Z" fill="white"/>
<path d="M121.788 75.9904C122.302 75.8978 122.803 75.7371 123.275 75.5125C123.426 75.4069 123.545 75.2628 123.62 75.0953C123.695 74.9278 123.724 74.7432 123.703 74.5608L123.621 74.2888C123.621 74.2888 124.534 73.5119 124.398 72.8553C124.398 72.8553 125.288 72.1133 124.985 71.418C124.985 71.418 125.801 70.9052 125.529 70.404C125.369 70.1695 125.157 69.9743 124.911 69.833C124.665 69.6917 124.39 69.608 124.107 69.5882C123.676 69.5688 122.308 69.2774 122.188 69.4872C122.188 69.4872 121.854 70.0427 122.133 70.2642L122.549 70.5944C122.549 70.5944 121.329 70.2991 121.147 70.54C120.964 70.7808 120.758 71.3169 121.24 71.5578C121.24 71.5578 120.754 71.6355 120.75 71.9463C120.746 72.2571 120.781 72.6222 121.1 72.7232C121.418 72.8243 121.721 72.9719 121.721 72.9719C121.721 72.9719 121.216 72.9019 121.209 73.1661C121.201 73.4303 121.08 73.6439 121.399 73.9431C121.718 74.2422 122.289 74.8793 122.289 74.8793L121.788 75.9904Z" fill="#A8605D"/>
<path d="M121.764 73.0068C121.764 73.0068 121.904 73.0068 122.125 73.0573C122.405 73.1098 122.669 73.221 122.902 73.3836C123.136 73.5513 123.33 73.7689 123.47 74.0207C123.578 74.2149 123.621 74.3509 123.637 74.347C123.633 74.2206 123.6 74.0967 123.54 73.9857C123.41 73.7112 123.212 73.4745 122.965 73.2981C122.716 73.121 122.425 73.0125 122.122 72.9835C122.002 72.9616 121.88 72.9696 121.764 73.0068Z" fill="#844949"/>
<path d="M124.446 72.7931C124.335 72.6613 124.204 72.5485 124.057 72.459C123.728 72.2233 123.371 72.0313 122.993 71.8879C122.61 71.7409 122.211 71.643 121.804 71.5966C121.636 71.5725 121.466 71.5725 121.299 71.5966C121.862 71.6719 122.416 71.802 122.954 71.9851C123.477 72.2028 123.977 72.4735 124.446 72.7931Z" fill="#844949"/>
<path d="M125.008 71.3908C124.271 70.9156 123.425 70.635 122.549 70.575C122.549 70.606 123.12 70.7032 123.796 70.9285C124.472 71.1538 124.993 71.418 125.008 71.3908Z" fill="#844949"/>
<path d="M137.719 0.726074H107.29V45.5295H110.23L112.907 50.7701L116.326 45.5295H137.719V0.726074Z" fill="#FAFAFA"/>
<path d="M137.716 0.726069C137.716 0.726069 137.716 0.79211 137.716 0.931963C137.716 1.07182 137.716 1.2816 137.716 1.54965C137.716 2.10129 137.716 2.91321 137.716 3.96599C137.716 6.09098 137.716 9.19105 137.739 13.1225C137.739 21.0125 137.766 32.2202 137.786 45.5295V45.6188H137.716H116.322L116.408 45.5761L112.985 50.8167L112.892 50.9643L112.81 50.8089C111.975 49.1657 111.078 47.4136 110.176 45.646L110.134 45.5645L110.227 45.6227H107.185V45.5217C107.185 28.5723 107.185 13.0331 107.208 0.718299V0.636719H107.286L129.503 0.679452L135.595 0.698876H137.18C137.537 0.698876 137.716 0.698876 137.716 0.698876H137.164H135.56L129.453 0.722185L107.286 0.761032L107.368 0.683336C107.368 12.9982 107.368 28.5374 107.387 45.4868L107.286 45.3858H110.289L110.316 45.4401L110.355 45.5178L112.993 50.6807H112.818C113.983 48.8782 115.149 47.099 116.241 45.4401L116.268 45.3935H116.322H137.716L137.622 45.4868C137.642 32.2007 137.657 21.0125 137.669 13.1419C137.669 9.19882 137.689 6.09098 137.692 3.96211C137.692 2.90156 137.692 2.08187 137.692 1.52634C137.692 1.2544 137.692 1.04462 137.692 0.897C137.692 0.749377 137.716 0.726069 137.716 0.726069Z" fill="#263238"/>
<path d="M115.805 8.49963H115.704C115.247 8.49963 114.877 8.8701 114.877 9.3271V37.3404C114.877 37.7974 115.247 38.1679 115.704 38.1679H115.805C116.262 38.1679 116.633 37.7974 116.633 37.3404V9.3271C116.633 8.8701 116.262 8.49963 115.805 8.49963Z" fill="#E0E0E0"/>
<path d="M115.805 38.1677C116.011 38.1551 116.206 38.0713 116.357 37.9308C116.718 37.6549 116.57 36.9906 116.594 36.2292C116.594 34.6753 116.574 32.4182 116.562 29.6251C116.551 26.8319 116.562 23.5376 116.539 19.8664C116.539 18.0289 116.539 16.1021 116.539 14.1014V9.51344C116.548 9.39122 116.54 9.26839 116.516 9.14827C116.486 9.03587 116.43 8.93207 116.353 8.84525C116.273 8.75721 116.174 8.68915 116.063 8.64663C115.953 8.6041 115.833 8.5883 115.716 8.60051C115.599 8.60073 115.484 8.6291 115.38 8.6832C115.277 8.7373 115.188 8.81554 115.121 8.91129C115.053 9.00556 115.009 9.11486 114.993 9.22985C114.993 9.33474 114.993 9.47847 114.993 9.61833V14.2179C114.993 16.2147 114.993 18.1455 114.993 19.983C114.993 23.6541 114.993 26.9756 114.974 29.7416C114.954 32.5076 114.95 34.7608 114.942 36.3225C114.942 36.7109 114.942 37.0567 114.942 37.3558C114.945 37.4785 114.974 37.5992 115.029 37.7088C115.085 37.8185 115.164 37.9142 115.261 37.989C115.383 38.0815 115.528 38.1392 115.681 38.1561H115.84C115.787 38.162 115.734 38.162 115.681 38.1561C115.521 38.1499 115.366 38.0958 115.238 38.0007C115.131 37.9249 115.044 37.8255 114.983 37.7102C114.921 37.5949 114.888 37.4669 114.884 37.3364C114.884 37.0373 114.884 36.6915 114.884 36.303C114.884 34.7491 114.865 32.4959 114.853 29.7222C114.841 26.9484 114.853 23.6347 114.83 19.9636C114.83 18.126 114.83 16.1953 114.83 14.1985C114.83 13.1962 114.83 12.1797 114.83 11.1489V9.59502C114.822 9.45915 114.822 9.32298 114.83 9.18711C114.852 9.04642 114.908 8.91319 114.993 8.79863C115.082 8.67616 115.199 8.5769 115.334 8.50927C115.469 8.44164 115.619 8.40764 115.77 8.41015C115.914 8.40132 116.059 8.42461 116.193 8.47834C116.328 8.53208 116.448 8.61494 116.547 8.72094C116.647 8.83135 116.717 8.96485 116.753 9.10942C116.782 9.24595 116.792 9.38577 116.784 9.52509V11.079C116.784 12.115 116.784 13.1315 116.784 14.1286C116.784 16.1293 116.784 18.0561 116.784 19.8936C116.784 23.5648 116.784 26.8863 116.761 29.6522C116.737 32.4182 116.737 34.6714 116.729 36.2564V37.2859C116.737 37.4159 116.716 37.546 116.668 37.6669C116.62 37.7878 116.545 37.8965 116.45 37.9851C116.364 38.064 116.261 38.1217 116.149 38.1534C116.037 38.1851 115.919 38.19 115.805 38.1677Z" fill="#263238"/>
<path d="M122.557 8.49963H122.456C121.999 8.49963 121.628 8.8701 121.628 9.3271V37.3404C121.628 37.7974 121.999 38.1679 122.456 38.1679H122.557C123.014 38.1679 123.384 37.7974 123.384 37.3404V9.3271C123.384 8.8701 123.014 8.49963 122.557 8.49963Z" fill="#E0E0E0"/>
<path d="M122.565 38.1678C122.77 38.1554 122.966 38.0716 123.116 37.9308C123.478 37.655 123.334 36.9907 123.353 36.2292C123.353 34.6753 123.353 32.4183 123.322 29.6251C123.291 26.8319 123.322 23.5376 123.299 19.8665C123.299 18.0289 123.299 16.1021 123.299 14.1014V11.0713C123.299 10.5585 123.299 10.0379 123.299 9.51734C123.308 9.39513 123.3 9.2723 123.276 9.15217C123.249 9.03942 123.194 8.93522 123.116 8.84916C123.036 8.76256 122.936 8.6955 122.826 8.65309C122.716 8.61067 122.597 8.59403 122.479 8.60442C122.362 8.60467 122.246 8.63301 122.142 8.68708C122.038 8.74116 121.949 8.81938 121.881 8.9152C121.814 9.00969 121.771 9.11904 121.757 9.23375C121.757 9.33864 121.757 9.48238 121.757 9.62224V11.1762C121.757 12.2121 121.757 13.2286 121.757 14.2257C121.757 16.2225 121.757 18.1533 121.757 19.9908C121.757 23.6619 121.757 26.9834 121.733 29.7494C121.71 32.5154 121.71 34.7686 121.702 36.3302V37.3636C121.703 37.4865 121.733 37.6074 121.788 37.7172C121.843 37.827 121.923 37.9226 122.021 37.9968C122.142 38.0891 122.285 38.1469 122.436 38.1639H122.596C122.543 38.1698 122.489 38.1698 122.436 38.1639C122.277 38.157 122.123 38.103 121.994 38.0085C121.888 37.9321 121.801 37.8325 121.74 37.7173C121.678 37.6022 121.644 37.4745 121.64 37.3442C121.64 37.0451 121.64 36.6993 121.64 36.3108C121.64 34.7569 121.621 32.5037 121.605 29.73C121.59 26.9562 121.605 23.6425 121.605 19.9713C121.605 18.1338 121.605 16.2031 121.605 14.2063V9.6067C121.605 9.47461 121.605 9.35418 121.605 9.19879C121.631 9.05902 121.686 8.92649 121.768 8.81031C121.857 8.68832 121.974 8.58941 122.11 8.52183C122.245 8.45425 122.394 8.41997 122.545 8.42183C122.69 8.41188 122.835 8.43466 122.969 8.48846C123.104 8.54227 123.224 8.62573 123.322 8.73261C123.422 8.84379 123.494 8.97689 123.532 9.1211C123.56 9.2578 123.569 9.39762 123.559 9.53677V14.1208C123.559 16.1215 123.559 18.0484 123.559 19.8859C123.559 23.557 123.559 26.8785 123.559 29.6445C123.559 32.4105 123.536 34.6637 123.528 36.2487C123.528 36.6371 123.528 36.979 123.528 37.2781C123.538 37.4083 123.518 37.539 123.469 37.6602C123.421 37.7815 123.345 37.89 123.248 37.9774C123.16 38.064 123.05 38.1269 122.931 38.1602C122.811 38.1934 122.685 38.196 122.565 38.1678Z" fill="#263238"/>
<path d="M129.305 8.49963H129.204C128.747 8.49963 128.376 8.8701 128.376 9.3271V37.3404C128.376 37.7974 128.747 38.1679 129.204 38.1679H129.305C129.762 38.1679 130.132 37.7974 130.132 37.3404V9.3271C130.132 8.8701 129.762 8.49963 129.305 8.49963Z" fill="#E0E0E0"/>
<path d="M129.305 38.1677C129.511 38.1551 129.706 38.0713 129.857 37.9308C130.218 37.6549 130.07 36.9906 130.094 36.2292C130.094 34.6753 130.074 32.4182 130.062 29.6251C130.051 26.8319 130.062 23.5376 130.039 19.8664C130.039 18.0289 130.039 16.1021 130.039 14.1014V9.51344C130.048 9.39122 130.04 9.26839 130.016 9.14827C129.986 9.03587 129.93 8.93207 129.853 8.84525C129.773 8.75721 129.674 8.68915 129.563 8.64663C129.453 8.6041 129.333 8.5883 129.216 8.60051C129.099 8.60073 128.984 8.6291 128.88 8.6832C128.777 8.7373 128.688 8.81554 128.621 8.91129C128.553 9.00556 128.509 9.11486 128.493 9.22985C128.493 9.33474 128.493 9.47847 128.493 9.61833V14.2179C128.493 16.2147 128.493 18.1455 128.493 19.983C128.493 23.6541 128.493 26.9756 128.474 29.7416C128.454 32.5076 128.446 34.7608 128.442 36.3225C128.442 36.7109 128.442 37.0567 128.442 37.3558C128.445 37.4785 128.474 37.5992 128.529 37.7088C128.585 37.8185 128.664 37.9142 128.761 37.989C128.883 38.0815 129.028 38.1392 129.181 38.1561H129.34C129.287 38.162 129.234 38.162 129.181 38.1561C129.021 38.1499 128.866 38.0958 128.738 38.0007C128.631 37.9249 128.544 37.8255 128.483 37.7102C128.421 37.5949 128.388 37.4669 128.384 37.3364C128.384 37.0373 128.384 36.6915 128.384 36.303C128.384 34.7491 128.365 32.4959 128.353 29.7222C128.341 26.9484 128.353 23.6347 128.33 19.9636C128.33 18.126 128.33 16.1953 128.33 14.1985C128.33 13.1962 128.33 12.1797 128.33 11.1489V9.59502C128.322 9.45915 128.322 9.32298 128.33 9.18711C128.352 9.04642 128.408 8.91319 128.493 8.79863C128.582 8.67616 128.699 8.5769 128.834 8.50927C128.969 8.44164 129.119 8.40764 129.27 8.41015C129.414 8.40132 129.559 8.42461 129.693 8.47834C129.828 8.53208 129.948 8.61494 130.047 8.72094C130.147 8.83135 130.217 8.96485 130.253 9.10942C130.28 9.24625 130.29 9.38579 130.284 9.52509V11.079C130.284 12.115 130.284 13.1315 130.284 14.1286C130.284 16.1293 130.284 18.0561 130.284 19.8936C130.284 23.5648 130.284 26.8863 130.261 29.6522C130.237 32.4182 130.237 34.6714 130.229 36.2564C130.229 36.6449 130.229 36.9868 130.229 37.2859C130.237 37.4159 130.216 37.546 130.168 37.6669C130.12 37.7878 130.045 37.8965 129.95 37.9851C129.864 38.064 129.761 38.1217 129.649 38.1534C129.537 38.1851 129.419 38.19 129.305 38.1677Z" fill="#263238"/>
<path d="M115.735 18.9923H115.226C114.336 18.9923 113.614 19.7141 113.614 20.6045V20.791C113.614 21.6814 114.336 22.4032 115.226 22.4032H115.735C116.626 22.4032 117.348 21.6814 117.348 20.791V20.6045C117.348 19.7141 116.626 18.9923 115.735 18.9923Z" fill="#C5221F"/>
<path d="M122.926 25.4257H122.417C121.526 25.4257 120.805 26.1475 120.805 27.0379V27.2243C120.805 28.1147 121.526 28.8365 122.417 28.8365H122.926C123.816 28.8365 124.538 28.1147 124.538 27.2243V27.0379C124.538 26.1475 123.816 25.4257 122.926 25.4257Z" fill="#C5221F"/>
<path d="M129.433 13.3011H128.924C128.034 13.3011 127.312 14.0229 127.312 14.9133V15.0998C127.312 15.9902 128.034 16.712 128.924 16.712H129.433C130.323 16.712 131.045 15.9902 131.045 15.0998V14.9133C131.045 14.0229 130.323 13.3011 129.433 13.3011Z" fill="#C5221F"/>
<path d="M68.8768 13.7751C68.7605 10.6078 67.5898 7.57011 65.5505 5.1439C63.5112 2.71769 60.7202 1.04193 57.6201 0.382507C54.5201 -0.27692 51.2886 0.117746 48.4384 1.50389C45.5882 2.89003 43.2825 5.18827 41.8871 8.03396C40.4917 10.8797 40.0865 14.1098 40.7359 17.212C41.3852 20.3142 43.0519 23.1107 45.4715 25.1578C47.8911 27.2049 50.925 28.3855 54.0918 28.5121C57.2587 28.6387 60.3772 27.7042 62.9525 25.8568L68.1115 27.7604L66.3323 22.4265C68.1021 19.8978 68.9958 16.8594 68.8768 13.7751Z" fill="#FAFAFA"/>
<path d="M68.8768 13.7752C68.8795 13.8269 68.8795 13.8788 68.8768 13.9305C68.8768 14.0393 68.8768 14.1947 68.8768 14.3928C68.8767 14.9927 68.8404 15.5921 68.7681 16.1876C68.4796 18.4436 67.6521 20.5969 66.3556 22.4655V22.4111L68.1776 27.741L68.2242 27.8848L68.0843 27.8342L62.9214 25.9385H62.8787V25.8957L63.0069 25.9462C61.3356 27.1501 59.423 27.9772 57.4011 28.3704C56.867 28.474 56.3274 28.5479 55.7851 28.5918C55.2373 28.6423 54.6779 28.619 54.1185 28.6151C53.9786 28.6151 53.8388 28.6151 53.695 28.6151L53.2755 28.5685L52.4247 28.4714C52.1411 28.4325 51.8653 28.3548 51.5817 28.3004C51.2981 28.246 51.0106 28.1955 50.7348 28.0984C50.1717 27.9339 49.619 27.7354 49.0799 27.504C48.808 27.3836 48.5321 27.271 48.2641 27.1428L47.4871 26.7038L47.0986 26.4823L46.7102 26.2221L45.9565 25.6588L45.2572 25.0799L44.9037 24.7808L44.5813 24.4506C44.3637 24.2292 44.1462 24.0116 43.9325 23.7863L43.3459 23.0559C43.2488 22.9316 43.1439 22.8151 43.0546 22.6675L42.7943 22.279C42.6234 22.0109 42.4369 21.7545 42.2815 21.502C41.9654 20.9482 41.6851 20.3746 41.4424 19.7849C41.3297 19.4858 41.186 19.1983 41.0966 18.8875C41.0073 18.5768 40.914 18.2699 40.8208 17.963C39.9918 14.8032 40.2658 11.4552 41.5978 8.4724C42.2201 7.06639 43.062 5.76822 44.0918 4.62644C45.0995 3.54739 46.259 2.62085 47.5337 1.876C48.7509 1.18876 50.0586 0.676124 51.4185 0.353161L52.4169 0.166691C52.7463 0.113185 53.0783 0.076877 53.4114 0.0579157C54.0572 -0.00044322 54.7062 -0.0147193 55.3538 0.0151841C57.5238 0.126481 59.6395 0.733359 61.5385 1.78926C63.4375 2.84516 65.0694 4.32203 66.309 6.10655C66.5382 6.47172 66.7868 6.8097 66.9811 7.15933L67.5599 8.17715C67.7114 8.51124 67.8357 8.84534 67.9484 9.15612C68.0066 9.31151 68.0805 9.46302 68.1271 9.61453C68.1737 9.76603 68.2164 9.91754 68.2553 10.0652C68.3407 10.3526 68.4223 10.6285 68.4961 10.8887L68.636 11.6269C68.6787 11.8561 68.7176 12.0697 68.7525 12.264C68.7875 12.4582 68.7836 12.6524 68.7991 12.7962C68.8225 13.1108 68.838 13.3478 68.8496 13.5188C68.8613 13.6897 68.8496 13.7674 68.8496 13.7674C68.8496 13.7674 68.8496 13.6819 68.8186 13.5226C68.7875 13.3634 68.7758 13.1109 68.7448 12.8001C68.7448 12.6408 68.7176 12.466 68.6904 12.2717C68.6632 12.0775 68.6088 11.8833 68.5661 11.6385L68.4456 10.8965C68.3679 10.6401 68.2864 10.3682 68.197 10.0807C68.1543 9.93308 68.1077 9.78546 68.061 9.63395C68.0144 9.48244 67.9445 9.33482 67.8823 9.17943C67.7503 8.87253 67.6259 8.54232 67.4705 8.20823L66.9344 7.19818C66.7363 6.85243 66.4916 6.51834 66.2585 6.15705C65.0222 4.39525 63.3993 2.93955 61.514 1.90128C59.6287 0.863009 57.5309 0.269687 55.381 0.166691C54.7333 0.139 54.0843 0.154573 53.4386 0.213308C53.1093 0.232271 52.7813 0.268579 52.4558 0.322082L51.4729 0.512438C50.1225 0.828578 48.8246 1.33753 47.6192 2.02363C46.3629 2.76253 45.2194 3.67837 44.2239 4.74299C43.2049 5.87816 42.3735 7.16858 41.7609 8.56563C40.445 11.5046 40.1709 14.8045 40.984 17.9202C41.0733 18.2271 41.1627 18.5301 41.2559 18.837C41.3491 19.1439 41.4851 19.4237 41.5978 19.7189C41.8457 20.2926 42.1312 20.8494 42.4524 21.3855C42.6078 21.6535 42.7904 21.906 42.9574 22.1624L43.2138 22.5509C43.2993 22.6752 43.4042 22.7918 43.4974 22.9122L44.0802 23.6309C44.2938 23.8523 44.5036 24.0738 44.7173 24.2913L45.0358 24.6176L45.3854 24.9129L46.0769 25.4956L46.8112 26.0472L47.1763 26.3036L47.5648 26.5212L48.3418 26.9563C48.6059 27.0806 48.8779 27.1933 49.142 27.3137C49.6747 27.5425 50.2209 27.7384 50.7776 27.9003C51.0495 27.9974 51.3331 28.0324 51.6128 28.1023C51.8925 28.1722 52.1644 28.2344 52.4441 28.2693L53.2832 28.3665L53.6989 28.417C53.8349 28.417 53.9747 28.417 54.1146 28.417C54.6662 28.417 55.2179 28.448 55.7579 28.417C56.2935 28.374 56.8265 28.3027 57.3545 28.2033C59.3541 27.8176 61.2465 27.0039 62.902 25.818L62.9991 25.7481L63.0302 25.8647L62.9797 25.8064L68.1348 27.7216L68.0377 27.8109L66.274 22.4732V22.446V22.4188C67.5708 20.5701 68.4097 18.4397 68.7214 16.2032C68.7999 15.6105 68.8453 15.0139 68.8574 14.4161C68.8574 14.218 68.8574 14.0665 68.8574 13.9539C68.8574 13.8412 68.8768 13.7752 68.8768 13.7752Z" fill="#263238"/>
<path d="M49.0182 6.22302L50.6343 7.55551L50.9256 8.59664L55.801 13.8567L55.2649 14.3733L50.5177 9.12108L49.4805 8.66268L48.2412 6.96113L49.0182 6.22302Z" fill="#E0E0E0"/>
<path d="M49.0179 6.23462C48.9571 6.30934 48.8923 6.38067 48.8237 6.44828L48.2681 7.01158V6.95719L49.5307 8.62377L49.4996 8.60046L50.5408 9.04721L55.2025 14.1752L55.3035 14.2839H55.1598L55.7464 13.7828V13.9226C53.8467 11.8598 52.1491 10.0106 50.8943 8.64319C50.7894 8.25471 50.6961 7.91285 50.6146 7.59818L50.634 7.62538L49.4686 6.63087L49.1578 6.35505C49.1187 6.32312 49.0823 6.28804 49.049 6.25016C49.199 6.34764 49.343 6.45401 49.4802 6.56871L50.7039 7.53603C50.7933 7.8507 50.8943 8.19256 51.003 8.57327V8.54608L55.9018 13.7828L55.9717 13.8566L55.8979 13.9226L55.3618 14.4432L55.288 14.5131L55.2181 14.4354L55.1171 14.3267L50.4592 9.17541L50.4864 9.19484L49.453 8.72866H49.4336L48.2176 7.01158L48.1943 6.9805L48.2215 6.95331L48.8237 6.41332C48.8833 6.34843 48.9483 6.28865 49.0179 6.23462Z" fill="#263238"/>
<path d="M56.0263 12.4232L56.5236 12.9555C56.4881 13.0332 56.4756 13.1193 56.4873 13.2039C56.4989 13.2885 56.5344 13.3681 56.5896 13.4333C56.6593 13.4904 56.7405 13.5317 56.8277 13.5545C56.9148 13.5773 57.0059 13.581 57.0946 13.5654L62.0011 18.9614C62.1176 19.0902 62.2074 19.2409 62.2652 19.4047C62.323 19.5685 62.3478 19.7422 62.338 19.9156C62.3283 20.089 62.2842 20.2588 62.2084 20.4151C62.1325 20.5714 62.0264 20.7111 61.8962 20.8261L61.6049 21.0863C61.3467 21.3121 61.0108 21.4282 60.6683 21.41C60.3259 21.3919 60.0041 21.2409 59.7712 20.9892L54.8531 15.6282C54.8798 15.5376 54.8781 15.441 54.8482 15.3514C54.8183 15.2618 54.7617 15.1835 54.686 15.1271C54.624 15.0763 54.5508 15.041 54.4724 15.0241C54.3941 15.0072 54.3128 15.0092 54.2354 15.0299L53.7731 14.5016C53.6886 14.4063 53.645 14.2817 53.6515 14.1545C53.6581 14.0274 53.7143 13.9079 53.8081 13.8218L55.3581 12.4038C55.4512 12.3217 55.572 12.2781 55.696 12.2817C55.8201 12.2853 55.9381 12.3359 56.0263 12.4232Z" fill="#C5221F"/>
<g opacity="0.3">
<path opacity="0.3" d="M61.4804 19.6023L56.9118 14.6143C56.8886 14.5915 56.8701 14.5643 56.8575 14.5342C56.8449 14.5042 56.8384 14.472 56.8384 14.4394C56.8384 14.4069 56.8449 14.3746 56.8575 14.3446C56.8701 14.3146 56.8886 14.2874 56.9118 14.2646C56.9346 14.2414 56.9618 14.2229 56.9918 14.2103C57.0219 14.1977 57.0541 14.1912 57.0867 14.1912C57.1192 14.1912 57.1514 14.1977 57.1815 14.2103C57.2115 14.2229 57.2387 14.2414 57.2615 14.2646L61.8378 19.2527C61.8838 19.2992 61.9096 19.3621 61.9096 19.4275C61.9096 19.493 61.8838 19.5558 61.8378 19.6023C61.8149 19.6268 61.7872 19.6463 61.7565 19.6596C61.7257 19.673 61.6926 19.6799 61.6591 19.6799C61.6256 19.6799 61.5924 19.673 61.5617 19.6596C61.5309 19.6463 61.5033 19.6268 61.4804 19.6023Z" fill="black"/>
</g>
<g opacity="0.3">
<path opacity="0.3" d="M60.8197 20.2199L56.2434 15.2163C56.1976 15.1704 56.1719 15.1083 56.1719 15.0435C56.1719 14.9786 56.1976 14.9165 56.2434 14.8706C56.2662 14.8473 56.2934 14.8288 56.3234 14.8162C56.3534 14.8036 56.3856 14.7971 56.4182 14.7971C56.4508 14.7971 56.483 14.8036 56.513 14.8162C56.543 14.8288 56.5702 14.8473 56.593 14.8706L61.1848 19.8742C61.208 19.8967 61.2264 19.9235 61.239 19.9532C61.2515 19.9829 61.258 20.0148 61.258 20.0471C61.258 20.0793 61.2515 20.1112 61.239 20.1409C61.2264 20.1706 61.208 20.1975 61.1848 20.2199C61.1616 20.2451 61.1333 20.2652 61.1019 20.279C61.0705 20.2927 61.0366 20.2998 61.0023 20.2998C60.968 20.2998 60.934 20.2927 60.9026 20.279C60.8712 20.2652 60.843 20.2451 60.8197 20.2199Z" fill="black"/>
</g>
<g opacity="0.3">
<path opacity="0.3" d="M60.1165 20.8532L55.5364 15.8651C55.5131 15.8423 55.4946 15.8151 55.482 15.7851C55.4694 15.755 55.4629 15.7228 55.4629 15.6903C55.4629 15.6577 55.4694 15.6255 55.482 15.5954C55.4946 15.5654 55.5131 15.5382 55.5364 15.5154C55.5829 15.4694 55.6457 15.4436 55.7112 15.4436C55.7766 15.4436 55.8394 15.4694 55.886 15.5154L60.4623 20.5035C60.5083 20.5501 60.5341 20.6129 60.5341 20.6783C60.5341 20.7438 60.5083 20.8066 60.4623 20.8532C60.4164 20.8989 60.3542 20.9247 60.2894 20.9247C60.2246 20.9247 60.1624 20.8989 60.1165 20.8532Z" fill="black"/>
</g>
<path d="M56.5234 12.9555C56.5234 12.9555 56.0184 13.4295 55.3852 14.0006C54.7519 14.5716 54.2197 15.03 54.2197 15.0223C54.2197 15.0145 54.7247 14.5483 55.358 13.9772C55.9912 13.4062 56.5234 12.9478 56.5234 12.9555Z" fill="#263238"/>
<path d="M57.1057 13.5692C57.1057 13.5692 56.6124 14.0432 55.9869 14.6104C55.3614 15.1775 54.8525 15.6321 54.8487 15.6282C54.8448 15.6243 55.3576 15.1698 55.9636 14.5871C56.5696 14.0043 57.098 13.5654 57.1057 13.5692Z" fill="#263238"/>
<path d="M55.1012 15.329C55.0798 15.2952 55.0604 15.2602 55.0429 15.2241C54.996 15.1387 54.9341 15.0624 54.8603 14.9988C54.7877 14.9351 54.705 14.8839 54.6156 14.8473C54.5756 14.8365 54.5366 14.8222 54.499 14.8046C54.5401 14.7972 54.5822 14.7972 54.6233 14.8046C54.7192 14.8376 54.8076 14.8891 54.8836 14.9561C54.9604 15.0214 55.0226 15.1021 55.0662 15.1931C55.0889 15.2348 55.1009 15.2815 55.1012 15.329Z" fill="#263238"/>
<path d="M55.2996 15.0999C55.2996 15.0999 55.1986 14.9717 55.0587 14.8279C54.9189 14.6842 54.7945 14.5793 54.7984 14.5715C54.9052 14.633 55.0011 14.7117 55.082 14.8046C55.1719 14.889 55.2456 14.989 55.2996 15.0999Z" fill="#263238"/>
<path d="M55.5134 14.9366C55.4186 14.8554 55.3314 14.7657 55.2531 14.6685C55.1647 14.5781 55.0853 14.4792 55.0161 14.3733C55.1115 14.4553 55.1986 14.5464 55.2764 14.6452C55.3641 14.7349 55.4435 14.8324 55.5134 14.9366Z" fill="#263238"/>
<path d="M55.7697 14.6842C55.6701 14.6115 55.5801 14.5267 55.5016 14.4317C55.4144 14.3443 55.3351 14.2494 55.2646 14.1481C55.3583 14.2277 55.4453 14.3147 55.5249 14.4084C55.6143 14.4931 55.6962 14.5854 55.7697 14.6842Z" fill="#263238"/>
<path d="M55.9756 14.4549C55.8674 14.4094 55.7725 14.3372 55.6997 14.2452C55.6185 14.1599 55.5598 14.0557 55.5288 13.9421C55.5288 13.9421 55.6026 14.082 55.7269 14.2218C55.8039 14.3056 55.887 14.3835 55.9756 14.4549Z" fill="#263238"/>
<path d="M56.3175 14.2336C56.1943 14.1879 56.0847 14.1118 55.9989 14.0122C55.9056 13.9194 55.8375 13.8044 55.8008 13.6781C55.8693 13.7863 55.9446 13.8901 56.0261 13.9889C56.1161 14.0786 56.2135 14.1605 56.3175 14.2336Z" fill="#263238"/>
<path d="M56.4301 13.9189C56.3288 13.8883 56.241 13.8239 56.1815 13.7363C56.1123 13.657 56.0701 13.5577 56.061 13.4528C56.1023 13.545 56.1517 13.6335 56.2087 13.7169C56.2758 13.7912 56.3499 13.8589 56.4301 13.9189Z" fill="#263238"/>
<path d="M56.8843 13.7868C56.8423 13.7975 56.7982 13.7975 56.7561 13.7868C56.6548 13.7659 56.5601 13.7206 56.4803 13.6547C56.4007 13.5882 56.3392 13.5027 56.3016 13.4061C56.2836 13.3671 56.2743 13.3247 56.2744 13.2817C56.2744 13.2817 56.2744 13.3284 56.3249 13.3983C56.3744 13.4843 56.442 13.5586 56.523 13.6158C56.5988 13.6797 56.6876 13.7261 56.7833 13.7518L56.8843 13.7868Z" fill="#263238"/>
<path d="M63.2326 7.64104L63.0889 7.48176L61.2436 9.39697L59.5615 7.71096L61.3368 5.86957L61.1931 5.71029C60.6427 5.64199 60.0841 5.71289 59.5682 5.91651C59.0524 6.12012 58.5959 6.44994 58.2406 6.87573C57.1723 8.08391 57.7239 9.67667 57.7239 9.67667L55.7466 11.6463L57.4559 13.2507L59.4371 11.3083C59.4371 11.3083 61.2863 11.8755 62.4712 10.5702C63.555 9.36589 63.2326 7.64104 63.2326 7.64104Z" fill="#263238"/>
<path d="M54.398 16.0945L52.6887 14.4978L50.4783 16.6888C50.4783 16.6888 48.4504 16.3004 47.4442 17.4231C46.7957 18.1757 46.4643 19.1505 46.5196 20.1424C46.5196 20.2745 46.6867 20.3172 46.6867 20.3172L48.6757 18.5652L50.3578 20.2473L48.4154 21.9294L48.5786 22.0887C49.1369 22.2352 49.7253 22.2203 50.2755 22.0456C50.8256 21.8709 51.3149 21.5437 51.6864 21.102C52.7586 19.8938 52.207 18.3049 52.207 18.3049L54.398 16.0945Z" fill="#263238"/>
<path d="M63.0885 7.48169L61.1033 9.23762L59.4173 7.55161L61.1849 5.71022C60.6266 5.56371 60.0382 5.57866 59.488 5.75334C58.9379 5.92801 58.4486 6.25522 58.0771 6.69696C57.0088 7.90513 57.5604 9.4979 57.5604 9.4979L55.5869 11.4869L57.2962 13.0913L59.2775 11.1489C59.2775 11.1489 61.1266 11.7161 62.3115 10.4108C63.4109 9.21042 63.0885 7.48169 63.0885 7.48169Z" fill="#174EA6"/>
<path d="M54.2314 15.9468L52.5259 14.3501L50.3077 16.5295C50.3077 16.5295 48.276 16.141 47.2737 17.2676C46.9385 17.6666 46.6952 18.1344 46.5609 18.6379C46.4267 19.1414 46.4048 19.6683 46.4967 20.1812L48.4857 18.4253L50.1679 20.1074L48.3925 21.9488C48.9505 22.0952 49.5385 22.0807 50.0885 21.9067C50.6386 21.7328 51.1281 21.4066 51.5003 20.9659C52.5687 19.7539 52.017 18.165 52.017 18.165L54.2314 15.9468Z" fill="#174EA6"/>
</svg>
