<svg width="98" height="25" viewBox="0 0 98 25" fill="none" xmlns="http://www.w3.org/2000/svg">
<path d="M0.669306 25C0.490824 25 0.330191 24.9369 0.187406 24.8108C0.0624685 24.6847 0 24.5225 0 24.3243V6.48649C0 6.28829 0.0624685 6.12613 0.187406 6C0.330191 5.87387 0.490824 5.81081 0.669306 5.81081H3.69457C3.8909 5.81081 4.05153 5.87387 4.17647 6C4.30141 6.12613 4.36388 6.28829 4.36388 6.48649V7.45946C5.32768 6.18018 6.71091 5.54054 8.51357 5.54054C10.2627 5.54054 11.6281 6.09009 12.6097 7.18919C13.5914 8.28829 14.1268 9.83784 14.2161 11.8378C14.2339 12.0721 14.2428 12.4054 14.2428 12.8378C14.2428 13.2703 14.2339 13.6036 14.2161 13.8378C14.1447 15.7838 13.6092 17.3243 12.6097 18.4595C11.6102 19.5766 10.2448 20.1351 8.51357 20.1351C6.76445 20.1351 5.46154 19.5315 4.60483 18.3243V24.3243C4.60483 24.5225 4.54236 24.6847 4.41742 24.8108C4.29248 24.9369 4.13185 25 3.93552 25H0.669306ZM7.06787 16.5135C7.90673 16.5135 8.50465 16.2613 8.86161 15.7568C9.23642 15.2523 9.4506 14.5586 9.50415 13.6757C9.53984 13.3153 9.55769 13.036 9.55769 12.8378C9.55769 12.6396 9.53984 12.3604 9.50415 12C9.4506 11.1171 9.23642 10.4234 8.86161 9.91892C8.50465 9.41441 7.90673 9.16216 7.06787 9.16216C6.24686 9.16216 5.64002 9.42342 5.24736 9.94595C4.87255 10.4504 4.65837 11.1081 4.60483 11.9189L4.57805 12.9189L4.60483 13.9459C4.64052 14.6847 4.86362 15.2973 5.27413 15.7838C5.68464 16.2703 6.28255 16.5135 7.06787 16.5135Z" fill="#498AF4"/>
<path d="M20.5305 20.1351C19.5846 20.1351 18.719 19.955 17.9336 19.5946C17.1662 19.2162 16.5593 18.7117 16.1131 18.0811C15.6848 17.4324 15.4706 16.7207 15.4706 15.9459C15.4706 14.7027 15.9703 13.7027 16.9698 12.9459C17.9872 12.1892 19.3793 11.6667 21.1463 11.3784L24.4928 10.8649V10.4865C24.4928 9.8018 24.3501 9.2973 24.0645 8.97297C23.7789 8.64865 23.297 8.48648 22.6188 8.48648C22.2083 8.48648 21.8692 8.55856 21.6014 8.7027C21.3337 8.84685 21.0571 9.04504 20.7715 9.2973C20.5216 9.51351 20.3342 9.65766 20.2093 9.72973C20.1557 9.87387 20.0576 9.94595 19.9148 9.94595H16.9966C16.8181 9.94595 16.6664 9.89189 16.5415 9.78378C16.4344 9.65766 16.3898 9.51351 16.4076 9.35135C16.4255 8.86486 16.6575 8.32432 17.1037 7.72973C17.5677 7.13513 18.2638 6.62162 19.1919 6.18919C20.1379 5.75676 21.298 5.54054 22.6723 5.54054C24.8676 5.54054 26.4918 6.03604 27.5449 7.02703C28.5979 8 29.1244 9.31531 29.1244 10.973V19.1892C29.1244 19.3694 29.062 19.5315 28.937 19.6757C28.8121 19.8018 28.6515 19.8649 28.4551 19.8649H25.3495C25.1711 19.8649 25.0104 19.8018 24.8676 19.6757C24.7427 19.5315 24.6802 19.3694 24.6802 19.1892V18.2432C24.2876 18.8018 23.7343 19.2613 23.0204 19.6216C22.3243 19.964 21.4943 20.1351 20.5305 20.1351ZM21.7888 17.0541C22.6099 17.0541 23.2702 16.7838 23.77 16.2432C24.2876 15.7027 24.5464 14.9099 24.5464 13.8649V13.4865L22.2707 13.8919C20.6644 14.1802 19.8612 14.7477 19.8612 15.5946C19.8612 16.045 20.0486 16.4054 20.4235 16.6757C20.7983 16.9279 21.2534 17.0541 21.7888 17.0541Z" fill="#498AF4"/>
<path d="M36.1708 19.8649C35.9209 19.8649 35.7246 19.8108 35.5818 19.7027C35.4568 19.5766 35.3498 19.4054 35.2605 19.1892L30.2006 6.64865L30.147 6.4054C30.147 6.24324 30.2006 6.10811 30.3076 6C30.4326 5.87387 30.5843 5.81081 30.7628 5.81081H33.788C34.1807 5.81081 34.4395 6 34.5644 6.37838L37.5897 14.6757L40.6417 6.37838C40.7667 6 41.0255 5.81081 41.4181 5.81081H44.4434C44.604 5.81081 44.7468 5.87387 44.8717 6C44.9967 6.10811 45.0591 6.24324 45.0591 6.4054L45.0056 6.64865L39.9457 19.1892C39.8564 19.4054 39.7404 19.5766 39.5976 19.7027C39.4548 19.8108 39.2585 19.8649 39.0086 19.8649H36.1708Z" fill="#498AF4"/>
<path d="M47.2471 3.78378C47.0508 3.78378 46.8902 3.72072 46.7652 3.59459C46.6403 3.46847 46.5778 3.30631 46.5778 3.10811V0.675675C46.5778 0.477477 46.6403 0.315315 46.7652 0.189188C46.8902 0.0630628 47.0508 0 47.2471 0H50.4598C50.6562 0 50.8168 0.0630628 50.9417 0.189188C51.0667 0.315315 51.1291 0.477477 51.1291 0.675675V3.10811C51.1291 3.30631 51.0667 3.46847 50.9417 3.59459C50.8168 3.72072 50.6562 3.78378 50.4598 3.78378H47.2471ZM47.2739 19.8649C47.0776 19.8649 46.917 19.8018 46.792 19.6757C46.6671 19.5496 46.6046 19.3874 46.6046 19.1892V6.48649C46.6046 6.28829 46.6671 6.12613 46.792 6C46.917 5.87387 47.0776 5.81081 47.2739 5.81081H50.433C50.6294 5.81081 50.79 5.87387 50.9149 6C51.0399 6.12613 51.1024 6.28829 51.1024 6.48649V19.1892C51.1024 19.3694 51.0399 19.5315 50.9149 19.6757C50.79 19.8018 50.6294 19.8649 50.433 19.8649H47.2739Z" fill="#498AF4"/>
<path d="M54.3989 19.8649C54.2204 19.8649 54.0598 19.8018 53.917 19.6757C53.7921 19.5315 53.7296 19.3694 53.7296 19.1892V1.35135C53.7296 1.15315 53.7921 0.99099 53.917 0.864865C54.0598 0.738738 54.2204 0.675675 54.3989 0.675675H57.558C57.7544 0.675675 57.915 0.738738 58.0399 0.864865C58.1649 0.99099 58.2273 1.15315 58.2273 1.35135V19.1892C58.2273 19.3874 58.1649 19.5496 58.0399 19.6757C57.915 19.8018 57.7544 19.8649 57.558 19.8649H54.3989Z" fill="#498AF4"/>
<path d="M61.4971 3.78378C61.3008 3.78378 61.1401 3.72072 61.0152 3.59459C60.8903 3.46847 60.8278 3.30631 60.8278 3.10811V0.675675C60.8278 0.477477 60.8903 0.315315 61.0152 0.189188C61.1401 0.0630628 61.3008 0 61.4971 0H64.7098C64.9061 0 65.0667 0.0630628 65.1917 0.189188C65.3166 0.315315 65.3791 0.477477 65.3791 0.675675V3.10811C65.3791 3.30631 65.3166 3.46847 65.1917 3.59459C65.0667 3.72072 64.9061 3.78378 64.7098 3.78378H61.4971ZM61.5239 19.8649C61.3275 19.8649 61.1669 19.8018 61.042 19.6757C60.917 19.5496 60.8546 19.3874 60.8546 19.1892V6.48649C60.8546 6.28829 60.917 6.12613 61.042 6C61.1669 5.87387 61.3275 5.81081 61.5239 5.81081H64.683C64.8793 5.81081 65.04 5.87387 65.1649 6C65.2898 6.12613 65.3523 6.28829 65.3523 6.48649V19.1892C65.3523 19.3694 65.2898 19.5315 65.1649 19.6757C65.04 19.8018 64.8793 19.8649 64.683 19.8649H61.5239Z" fill="#498AF4"/>
<path d="M74.5655 20.1351C72.3523 20.1351 70.6478 19.6036 69.452 18.5405C68.2562 17.4775 67.6047 15.982 67.4976 14.0541C67.4798 13.8198 67.4709 13.4144 67.4709 12.8378C67.4709 12.2613 67.4798 11.8559 67.4976 11.6216C67.6047 9.71171 68.274 8.22522 69.5055 7.16216C70.7371 6.08108 72.4237 5.54054 74.5655 5.54054C76.7251 5.54054 78.4207 6.08108 79.6522 7.16216C80.8838 8.22522 81.5531 9.71171 81.6601 11.6216C81.678 11.8559 81.6869 12.2613 81.6869 12.8378C81.6869 13.4144 81.678 13.8198 81.6601 14.0541C81.5531 15.982 80.9016 17.4775 79.7058 18.5405C78.5099 19.6036 76.7965 20.1351 74.5655 20.1351ZM74.5655 16.8378C75.3508 16.8378 75.9309 16.6036 76.3057 16.1351C76.6805 15.6486 76.8947 14.9099 76.9482 13.9189C76.9661 13.7387 76.975 13.3784 76.975 12.8378C76.975 12.2973 76.9661 11.9369 76.9482 11.7568C76.8947 10.7838 76.6716 10.0541 76.2789 9.56757C75.9041 9.08108 75.333 8.83784 74.5655 8.83784C73.0841 8.83784 72.2988 9.81081 72.2095 11.7568L72.1828 12.8378L72.2095 13.9189C72.2452 14.9099 72.4505 15.6486 72.8253 16.1351C73.218 16.6036 73.798 16.8378 74.5655 16.8378Z" fill="#498AF4"/>
<path d="M84.48 19.8649C84.2837 19.8649 84.1231 19.8018 83.9981 19.6757C83.8732 19.5496 83.8107 19.3874 83.8107 19.1892V6.48649C83.8107 6.28829 83.8732 6.12613 83.9981 6C84.1231 5.87387 84.2837 5.81081 84.48 5.81081H87.5588C87.7552 5.81081 87.9158 5.87387 88.0407 6C88.1835 6.12613 88.2549 6.28829 88.2549 6.48649V7.51351C88.7368 6.91892 89.3526 6.44144 90.1022 6.08108C90.8697 5.72072 91.7353 5.54054 92.6991 5.54054C94.2697 5.54054 95.5459 6.08108 96.5275 7.16216C97.5092 8.22522 98 9.72072 98 11.6486V19.1892C98 19.3694 97.9375 19.5315 97.8126 19.6757C97.6877 19.8018 97.527 19.8649 97.3307 19.8649H93.9574C93.7789 19.8649 93.6183 19.8018 93.4755 19.6757C93.3505 19.5315 93.2881 19.3694 93.2881 19.1892V11.8108C93.2881 10.964 93.0828 10.3153 92.6723 9.86487C92.2618 9.3964 91.6728 9.16216 90.9054 9.16216C90.1557 9.16216 89.5667 9.3964 89.1384 9.86487C88.71 10.3153 88.4958 10.964 88.4958 11.8108V19.1892C88.4958 19.3694 88.4334 19.5315 88.3084 19.6757C88.1835 19.8018 88.0229 19.8649 87.8265 19.8649H84.48Z" fill="#498AF4"/>
</svg>