<svg width="74" height="75" viewBox="0 0 74 75" fill="none" xmlns="http://www.w3.org/2000/svg">
<rect y="0.248047" width="74" height="74" fill="url(#paint0_linear_1134_6185)"/>
<path d="M23.7216 59.4481C23.3159 59.4481 22.9507 59.3072 22.6262 59.0255C22.3422 58.7437 22.2002 58.3814 22.2002 57.9386V18.0865C22.2002 17.6437 22.3422 17.2814 22.6262 16.9996C22.9507 16.7179 23.3159 16.577 23.7216 16.577H30.5982C31.0445 16.577 31.4096 16.7179 31.6936 16.9996C31.9776 17.2814 32.1196 17.6437 32.1196 18.0865V20.2603C34.3104 17.4022 37.4546 15.9731 41.5522 15.9731C45.528 15.9731 48.6317 17.2009 50.863 19.6564C53.0944 22.112 54.3115 25.5739 54.5143 30.0421C54.5549 30.5654 54.5752 31.3102 54.5752 32.2763C54.5752 33.2424 54.5549 33.9871 54.5143 34.5104C54.3521 38.8579 53.135 42.2997 50.863 44.8357C48.5911 47.3315 45.4875 48.5794 41.5522 48.5794C37.5763 48.5794 34.6147 47.2309 32.6673 44.5338V57.9386C32.6673 58.3814 32.5253 58.7437 32.2413 59.0255C31.9573 59.3072 31.5922 59.4481 31.1459 59.4481H23.7216ZM38.266 40.4882C40.1728 40.4882 41.5319 39.9246 42.3433 38.7975C43.1953 37.6704 43.6821 36.1206 43.8038 34.1481C43.885 33.343 43.9255 32.7191 43.9255 32.2763C43.9255 31.8335 43.885 31.2095 43.8038 30.4044C43.6821 28.432 43.1953 26.8821 42.3433 25.755C41.5319 24.6279 40.1728 24.0643 38.266 24.0643C36.3998 24.0643 35.0204 24.648 34.1278 25.8154C33.2759 26.9425 32.789 28.4118 32.6673 30.2233L32.6064 32.4574L32.6673 34.7519C32.7484 36.4024 33.2556 37.771 34.1887 38.8579C35.1218 39.9448 36.4809 40.4882 38.266 40.4882Z" fill="white"/>
<defs>
<linearGradient id="paint0_linear_1134_6185" x1="37.3685" y1="0.248044" x2="37.3685" y2="74.248" gradientUnits="userSpaceOnUse">
<stop stop-color="#498AF4"/>
<stop offset="1" stop-color="#1A73E8"/>
</linearGradient>
</defs>
</svg>