<svg width="383" height="286" viewBox="0 0 383 286" fill="none" xmlns="http://www.w3.org/2000/svg">
<path d="M383 250.789H0V250.98H383V250.789Z" fill="#E6E6E6"/>
<path d="M95.6121 262.378H70.2422V262.569H95.6121V262.378Z" fill="#E6E6E6"/>
<path d="M62.2144 262.378H47.5149V262.569H62.2144V262.378Z" fill="#E6E6E6"/>
<path d="M161.281 265.197H146.582V265.388H161.281V265.197Z" fill="#E6E6E6"/>
<path d="M237.927 269.471H204.844V269.663H237.927V269.471Z" fill="#E6E6E6"/>
<path d="M198.026 269.471H193.177V269.663H198.026V269.471Z" fill="#E6E6E6"/>
<path d="M347.266 265.197H275.507V265.388H347.266V265.197Z" fill="#E6E6E6"/>
<path d="M181.542 216.625H33.635C32.4763 216.623 31.3658 216.161 30.5472 215.341C29.7286 214.521 29.2688 213.41 29.2688 212.251V4.33556C29.2789 3.18352 29.7431 2.08197 30.5606 1.2702C31.3781 0.458419 32.4829 0.00197351 33.635 0H181.542C182.702 0 183.814 0.460816 184.635 1.28107C185.455 2.10133 185.916 3.21384 185.916 4.37386V212.251C185.916 213.411 185.455 214.523 184.635 215.344C183.814 216.164 182.702 216.625 181.542 216.625ZM33.635 0.153201C32.5271 0.15523 31.4653 0.596764 30.6826 1.38089C29.8999 2.16501 29.4603 3.22765 29.4603 4.33556V212.251C29.4603 213.359 29.8999 214.421 30.6826 215.206C31.4653 215.99 32.5271 216.431 33.635 216.433H181.542C182.651 216.431 183.713 215.99 184.497 215.206C185.281 214.422 185.722 213.36 185.724 212.251V4.33556C185.722 3.22695 185.281 2.16433 184.497 1.38042C183.713 0.596515 182.651 0.155225 181.542 0.153201H33.635Z" fill="#E6E6E6"/>
<path d="M347.235 216.625H199.321C198.161 216.623 197.05 216.161 196.23 215.341C195.411 214.522 194.949 213.41 194.947 212.251V4.33556C194.959 3.18282 195.425 2.08128 196.244 1.26972C197.062 0.458151 198.168 0.00195199 199.321 0H347.235C348.386 0.00398664 349.489 0.461323 350.305 1.27288C351.121 2.08444 351.584 3.18484 351.594 4.33556V212.251C351.594 213.408 351.135 214.518 350.318 215.338C349.501 216.158 348.393 216.621 347.235 216.625ZM199.321 0.153201C198.212 0.155225 197.15 0.596515 196.366 1.38042C195.582 2.16433 195.141 3.22695 195.139 4.33556V212.251C195.141 213.36 195.582 214.422 196.366 215.206C197.15 215.99 198.212 216.431 199.321 216.433H347.235C348.344 216.431 349.407 215.99 350.191 215.206C350.975 214.422 351.416 213.36 351.418 212.251V4.33556C351.416 3.22695 350.975 2.16433 350.191 1.38042C349.407 0.596515 348.344 0.155225 347.235 0.153201H199.321Z" fill="#E6E6E6"/>
<path d="M204.828 185.356H187.984V252.175H204.828V185.356Z" fill="#E0E0E0"/>
<path d="M201.627 252.175H204.828V243.075H198.271L201.627 252.175Z" fill="#FAFAFA"/>
<path d="M131.017 185.356H114.172V252.175H131.017V185.356Z" fill="#E0E0E0"/>
<path d="M204.828 185.356H128.228V246.59H204.828V185.356Z" fill="#FAFAFA"/>
<path d="M202.048 188.367V204.568H130.986V188.367H202.025H202.048ZM202.324 188.068H130.71V204.859H202.347V188.068H202.324Z" fill="#E0E0E0"/>
<path d="M131.423 252.175H128.228V243.075H134.778L131.423 252.175Z" fill="#FAFAFA"/>
<path d="M164.835 196.464C164.835 196.799 164.935 197.126 165.121 197.404C165.307 197.683 165.571 197.9 165.88 198.028C166.19 198.156 166.53 198.19 166.859 198.124C167.187 198.059 167.489 197.898 167.725 197.661C167.962 197.424 168.123 197.123 168.189 196.794C168.254 196.466 168.22 196.125 168.092 195.816C167.964 195.507 167.747 195.242 167.469 195.056C167.19 194.87 166.863 194.771 166.528 194.771C166.079 194.771 165.649 194.949 165.331 195.267C165.014 195.584 164.835 196.015 164.835 196.464Z" fill="#E6E6E6"/>
<path d="M202.048 207.869V224.07H130.986V207.869H202.025H202.048ZM202.324 207.578H130.71V224.369H202.347V207.586L202.324 207.578Z" fill="#E0E0E0"/>
<path d="M164.835 216.012C164.835 216.347 164.935 216.674 165.121 216.953C165.307 217.231 165.571 217.448 165.88 217.576C166.19 217.704 166.53 217.738 166.859 217.673C167.187 217.607 167.489 217.446 167.725 217.209C167.962 216.972 168.123 216.671 168.189 216.342C168.254 216.014 168.22 215.674 168.092 215.364C167.964 215.055 167.747 214.791 167.469 214.605C167.19 214.419 166.863 214.319 166.528 214.319C166.079 214.319 165.649 214.498 165.331 214.815C165.014 215.133 164.835 215.563 164.835 216.012Z" fill="#E6E6E6"/>
<path d="M202.048 227.379V243.588H130.986V227.379H202.025H202.048ZM202.324 227.081H130.71V243.879H202.347V227.081H202.324Z" fill="#E0E0E0"/>
<path d="M164.835 235.484C164.837 235.818 164.938 236.145 165.124 236.422C165.311 236.7 165.576 236.915 165.886 237.042C166.195 237.169 166.535 237.202 166.863 237.135C167.191 237.069 167.492 236.907 167.728 236.67C167.964 236.433 168.124 236.132 168.189 235.804C168.254 235.475 168.22 235.135 168.092 234.826C167.963 234.518 167.746 234.254 167.468 234.068C167.19 233.882 166.863 233.783 166.528 233.783C166.305 233.783 166.085 233.827 165.879 233.913C165.673 233.998 165.486 234.124 165.329 234.282C165.171 234.44 165.047 234.627 164.962 234.834C164.877 235.04 164.834 235.261 164.835 235.484Z" fill="#E6E6E6"/>
<path d="M120.729 146.551H103.885V252.183H120.729V146.551Z" fill="#E0E0E0"/>
<path d="M117.527 252.175H120.729V243.075H114.18L117.527 252.175Z" fill="#FAFAFA"/>
<path d="M57.7794 146.551H40.9351V252.183H57.7794V146.551Z" fill="#E0E0E0"/>
<path d="M120.729 146.551H54.9834V246.599H120.729V146.551Z" fill="#FAFAFA"/>
<path d="M117.895 149.37V172.021H57.8176V149.37H117.895ZM118.247 149.025H57.45V172.35H118.232V149.033L118.247 149.025Z" fill="#E0E0E0"/>
<path d="M117.895 174.786V234.863H89.2773V174.786H117.895ZM118.247 174.434H88.9326V235.216H118.247V174.434Z" fill="#E0E0E0"/>
<path d="M86.4354 174.786V234.863H57.8176V174.786H86.4354ZM86.7801 174.434H57.45V235.216H86.7648V174.434H86.7801Z" fill="#E0E0E0"/>
<path d="M58.1853 252.175H54.9834V243.075H61.5404L58.1853 252.175Z" fill="#FAFAFA"/>
<path d="M86.1597 160.707C86.1582 161.043 86.2566 161.373 86.4425 161.653C86.6285 161.934 86.8935 162.153 87.2041 162.283C87.5147 162.413 87.8569 162.448 88.1872 162.383C88.5176 162.318 88.8213 162.157 89.0599 161.919C89.2985 161.682 89.4612 161.379 89.5275 161.049C89.5937 160.719 89.5605 160.376 89.432 160.065C89.3035 159.754 89.0856 159.488 88.8058 159.301C88.5259 159.114 88.1969 159.014 87.8602 159.014C87.4105 159.014 86.9791 159.192 86.6605 159.509C86.3418 159.826 86.1617 160.257 86.1597 160.707Z" fill="#E6E6E6"/>
<path d="M92.2263 203.396C92.2263 203.733 92.3263 204.062 92.5135 204.341C92.7007 204.621 92.9667 204.839 93.2779 204.968C93.589 205.096 93.9314 205.129 94.2614 205.063C94.5915 204.997 94.8945 204.834 95.132 204.596C95.3695 204.357 95.5309 204.053 95.5956 203.723C95.6604 203.393 95.6256 203.05 95.4957 202.74C95.3658 202.429 95.1467 202.164 94.866 201.978C94.5854 201.792 94.2558 201.694 93.9192 201.695C93.6962 201.695 93.4755 201.739 93.2696 201.825C93.0637 201.91 92.8767 202.036 92.7194 202.194C92.5621 202.352 92.4376 202.539 92.353 202.746C92.2684 202.952 92.2253 203.173 92.2263 203.396Z" fill="#E6E6E6"/>
<path d="M80.1006 203.396C80.1021 203.73 80.2027 204.057 80.3896 204.334C80.5765 204.612 80.8415 204.827 81.1509 204.954C81.4604 205.081 81.8005 205.114 82.1284 205.048C82.4563 204.981 82.7572 204.82 82.9932 204.582C83.2292 204.345 83.3896 204.044 83.4543 203.716C83.519 203.387 83.4851 203.047 83.3567 202.739C83.2284 202.43 83.0114 202.166 82.7332 201.98C82.4549 201.794 82.128 201.695 81.7935 201.695C81.5705 201.695 81.3497 201.739 81.1439 201.825C80.938 201.91 80.751 202.036 80.5937 202.194C80.4364 202.352 80.3119 202.539 80.2273 202.746C80.1426 202.952 80.0996 203.173 80.1006 203.396Z" fill="#E6E6E6"/>
<path d="M78.1856 117.099H71.0847C71.7391 120.543 72.1512 124.029 72.318 127.532C72.318 131.362 66.91 146.551 74.616 146.551C82.322 146.551 76.914 131.4 76.914 127.532C77.0934 124.028 77.5183 120.542 78.1856 117.099Z" fill="#E0E0E0"/>
<path d="M51.1687 132.633V137.229C51.1768 139.693 52.1591 142.053 53.9013 143.795C55.6435 145.538 58.0041 146.52 60.4679 146.528H65.0639C67.5278 146.52 69.8884 145.538 71.6306 143.795C73.3728 142.053 74.3551 139.693 74.3632 137.229V132.633H51.1687Z" fill="#F5F5F5"/>
<path d="M149.883 175.613C149.883 180.975 155.881 185.357 163.212 185.357H169.83C177.161 185.357 183.158 180.975 183.158 175.613H149.883Z" fill="#E0E0E0"/>
<path d="M325.251 167.754C321.238 171.032 315.692 177.03 310.621 185.471C307.235 191.094 305.197 196.961 304.301 204.759C304.301 195.95 304.355 186.49 304.386 177.559C305.404 175.261 307.733 169.96 309.403 165.778C314.972 151.813 317.063 148.374 322.065 136.333C328.752 120.247 335.6 101.204 333.639 102.728C329.641 105.83 314.321 134.517 312.666 138.623C308.156 149.58 305.368 161.169 304.401 172.978C304.401 164.552 304.462 156.892 304.493 150.948C304.6 131.56 304.929 125.302 305.09 123.372C305.711 122.391 306.438 121.25 306.867 120.637C310.468 115.428 311.854 111.001 315.24 103.234C320.05 92.2416 324.187 72.7162 322.976 73.6967C317.936 77.8025 313.968 86.6115 308.744 97.8487C303.52 109.086 305.014 115.543 303.98 125.134C303.765 127.018 303.597 134.126 303.474 143.97C302.126 133.475 299.583 126.566 294.948 120.285C289.249 112.556 283.734 107.339 279.69 104.612C275.645 101.886 286.676 120.867 291.946 129.124C296.641 136.509 300.969 143.012 303.436 149.423C303.305 162.775 303.244 179.673 303.244 195.383C302.034 188.229 300.058 180.515 297.423 174.548C294.251 167.378 289.38 156.379 285.496 152.648C284.569 151.752 289.556 173.146 292.758 178.83C295.96 184.514 298.311 189.884 300.326 193.108C300.793 193.874 302.356 196.762 303.244 198.432C303.244 217.636 303.351 234.58 303.52 240.348H304.347C304.294 238.862 304.278 229.087 304.301 216.157C306.301 209.141 310.866 201.128 314.635 193.821C318.74 185.908 329.265 164.498 325.251 167.754Z" fill="#E0E0E0"/>
<path d="M315.929 252.175H291.923L290.107 228.643H317.744L315.929 252.175Z" fill="#F0F0F0"/>
<path d="M319.529 231.386H288.315L287.426 223.442H320.426L319.529 231.386Z" fill="#F5F5F5"/>
<path d="M95.1831 15.7031H52.2488V62.8504H95.1831V15.7031Z" fill="#E0E0E0"/>
<path d="M99.8328 15.7031H55.4814V62.8504H99.8328V15.7031Z" fill="#F5F5F5"/>
<path d="M96.1177 59.1351V19.418L59.1965 19.418V59.1351H96.1177Z" fill="white"/>
<path d="M87.1631 49.4989V29.0391H68.1433V49.4989H87.1631Z" fill="#F5F5F5"/>
<path d="M314.098 21.1953H274.213V64.9952H314.098V21.1953Z" fill="#E0E0E0"/>
<path d="M318.419 21.1953H277.223V64.9952H318.419V21.1953Z" fill="#F5F5F5"/>
<path d="M314.972 61.5405V24.6499L280.678 24.6499V61.5405H314.972Z" fill="white"/>
<path d="M297.821 53.7961C303.731 53.7961 308.522 49.0051 308.522 43.0951C308.522 37.1851 303.731 32.394 297.821 32.394C291.911 32.394 287.12 37.1851 287.12 43.0951C287.12 49.0051 291.911 53.7961 297.821 53.7961Z" fill="#F5F5F5"/>
<path d="M139.787 43.8154H107.937V78.791H139.787V43.8154Z" fill="#E0E0E0"/>
<path d="M143.234 43.8154H110.335V78.791H143.234V43.8154Z" fill="#F5F5F5"/>
<path d="M140.477 76.0331V46.5728H113.092V76.0331H140.477Z" fill="white"/>
<path d="M126.788 53.8496L119.297 66.8257H134.28L126.788 53.8496Z" fill="#F5F5F5"/>
<path d="M191.5 285.381C273.525 285.381 340.02 281.499 340.02 276.71C340.02 271.921 273.525 268.039 191.5 268.039C109.475 268.039 42.9802 271.921 42.9802 276.71C42.9802 281.499 109.475 285.381 191.5 285.381Z" fill="#F5F5F5"/>
<path d="M267.525 83.0577L259.927 79.9937C259.927 79.9937 249.9 98.2781 247.027 99.2049C243.121 100.461 235.032 103.954 230.237 104.567C229.585 105.333 228.521 107.715 228.62 108.581C235.062 110.733 249.218 107.876 252.251 105.624C259.153 100.515 267.525 83.0577 267.525 83.0577Z" fill="#E58A7B"/>
<path d="M269.862 78.8984C271.279 84.1302 263.603 94.655 263.603 94.655L253.546 89.0173C253.546 89.0173 255.43 84.6894 257.728 80.2849C261.413 73.1687 268.245 72.9313 269.862 78.8984Z" fill="#498AF4"/>
<path opacity="0.2" d="M269.862 78.8984C271.279 84.1302 263.603 94.655 263.603 94.655L253.546 89.0173C253.546 89.0173 255.43 84.6894 257.728 80.2849C261.413 73.1687 268.245 72.9313 269.862 78.8984Z" fill="black"/>
<path opacity="0.2" d="M257.537 91.269L261.497 93.4904L262.194 81.334C259.888 83.1034 258.265 88.4348 257.537 91.269Z" fill="black"/>
<path d="M263.244 74.9611C263.244 74.9611 255.415 92.3799 259.98 124.812H290.827C291.318 120.078 289.694 96.9759 295.569 74.67C292.185 74.0087 288.761 73.5711 285.32 73.3601C280.955 73.1072 276.579 73.1072 272.213 73.3601C269.187 73.6674 266.189 74.2026 263.244 74.9611Z" fill="#498AF4"/>
<path opacity="0.2" d="M263.244 74.9611C263.244 74.9611 255.415 92.3799 259.98 124.812H290.827C291.318 120.078 289.694 96.9759 295.569 74.67C292.185 74.0087 288.761 73.5711 285.32 73.3601C280.955 73.1072 276.579 73.1072 272.213 73.3601C269.187 73.6674 266.189 74.2026 263.244 74.9611Z" fill="black"/>
<g style="mix-blend-mode:multiply">
<path d="M256.089 277.4C256.043 278.227 267.74 278.893 282.21 278.893C296.679 278.893 308.46 278.227 308.506 277.4C308.552 276.572 296.863 275.914 282.386 275.914C267.908 275.914 256.143 276.58 256.089 277.4Z" fill="#E8ECF1"/>
</g>
<path d="M276.68 255.662L271.208 257.78L275.921 269.955L281.392 267.837L276.68 255.662Z" fill="#E58A7B"/>
<path d="M301.076 271.509H295.308L293.194 258.158H298.962L301.076 271.509Z" fill="#E58A7B"/>
<path d="M294.91 270.842H301.39C301.503 270.843 301.611 270.883 301.697 270.956C301.783 271.029 301.839 271.13 301.858 271.241L302.693 276.365C302.71 276.494 302.7 276.625 302.662 276.749C302.625 276.873 302.561 276.988 302.475 277.085C302.39 277.182 302.284 277.26 302.165 277.313C302.047 277.366 301.918 277.393 301.789 277.392C299.529 277.353 298.441 277.215 295.592 277.215C293.838 277.215 290.23 277.399 287.794 277.399C285.358 277.399 285.197 275.009 286.201 274.787C290.705 273.814 292.451 272.489 293.952 271.202C294.217 270.97 294.558 270.842 294.91 270.842Z" fill="#263238"/>
<path d="M275.76 268.866L281.888 267.074C281.997 267.043 282.114 267.051 282.219 267.095C282.323 267.14 282.409 267.219 282.463 267.319L284.761 271.915C284.814 272.032 284.841 272.158 284.84 272.287C284.84 272.415 284.811 272.541 284.756 272.657C284.702 272.773 284.622 272.876 284.524 272.958C284.425 273.04 284.31 273.1 284.186 273.133C281.957 273.746 280.463 274.121 277.675 274.933C275.752 275.492 273.791 276.404 271.892 277.009C270.574 277.43 267.48 277.445 265.879 277.445C263.512 277.445 262.983 274.948 264.002 274.833C266.568 274.55 266.913 274.68 268.33 273.968C270.649 272.954 272.75 271.503 274.519 269.694C274.853 269.313 275.281 269.028 275.76 268.866Z" fill="#263238"/>
<path d="M231.202 104.536L224.859 101.878L222.247 108.91C224.847 109.306 227.491 109.306 230.091 108.91L231.202 104.536Z" fill="#E58A7B"/>
<path d="M220.141 101.694L219.972 106.367L222.247 108.895L224.859 101.863L220.141 101.694Z" fill="#E58A7B"/>
<path d="M277.43 256.696L271.942 258.815L274.373 265.111L279.861 262.992L277.43 256.696Z" fill="#CF6F64"/>
<path d="M298.962 258.158H293.194L294.289 265.044H300.057L298.962 258.158Z" fill="#CF6F64"/>
<path opacity="0.2" d="M259 116.042C259.115 117.428 259.245 118.845 259.413 120.301L282.347 112.855C285.929 111.794 289.042 109.543 291.172 106.474C291.264 104.429 291.379 102.277 291.555 100.032C291.631 98.9445 291.723 97.8262 291.823 96.6925C291.922 95.5588 292.06 94.3026 292.206 93.0923L259 116.042Z" fill="black"/>
<path d="M266.491 90.9166L265.725 90.8246C266.177 86.9946 269.034 83.9766 272.045 84.0532V84.8192C269.41 84.7656 266.897 87.4849 266.491 90.9166Z" fill="white"/>
<path d="M270.574 97.9869H270.444V97.2209C273.079 97.3204 275.553 94.5705 275.959 91.1465L276.725 91.2384C276.319 94.9841 273.554 97.9869 270.574 97.9869Z" fill="white"/>
<path d="M284.891 58.5991C283.811 62.8198 282.539 70.5487 285.32 73.3599C285.32 73.3599 283.374 77.6419 275.538 77.6419C268.376 77.6419 272.213 73.3599 272.213 73.3599C276.978 72.2416 277.062 68.7639 276.434 65.4701L284.891 58.5991Z" fill="#E58A7B"/>
<path d="M281.444 61.4028L276.442 65.4703C276.597 66.2272 276.686 66.996 276.71 67.7683C278.173 69.2237 281.107 65.5392 281.405 63.6549C281.557 62.913 281.57 62.1494 281.444 61.4028Z" fill="#CF6F64"/>
<path d="M267.84 58.5457C268.188 59.149 268.656 59.674 269.217 60.0878C269.777 60.5017 270.416 60.7955 271.095 60.951C272.933 61.357 273.853 59.6641 273.347 57.9636C272.895 56.4316 271.386 54.3711 269.517 54.7234C269.117 54.8059 268.742 54.9831 268.424 55.2402C268.106 55.4973 267.855 55.8268 267.691 56.2011C267.526 56.5754 267.454 56.9836 267.48 57.3915C267.506 57.7995 267.629 58.1953 267.84 58.5457Z" fill="#CF6F64"/>
<path d="M270.88 45.0408C268.016 46.3507 267.004 57.7335 270.605 59.4187C274.205 61.1039 276.304 42.5513 270.88 45.0408Z" fill="#263238"/>
<path d="M285.764 52.2491C285.075 57.9635 284.998 61.3263 281.934 64.2524C280.984 65.2234 279.785 65.9132 278.468 66.2455C277.152 66.5778 275.769 66.5398 274.472 66.1356C273.176 65.7314 272.016 64.9768 271.121 63.9551C270.227 62.9334 269.632 61.6843 269.402 60.3458C268.475 55.2136 269.755 46.734 275.484 44.4589C276.688 43.9279 278.012 43.7286 279.319 43.8816C280.626 44.0346 281.868 44.5343 282.917 45.329C283.965 46.1237 284.782 47.1844 285.283 48.4012C285.784 49.618 285.95 50.9466 285.764 52.2491Z" fill="#E58A7B"/>
<path d="M276.35 47.9978C280.594 46.9178 283.711 46.1824 282.593 49.7136C281.114 54.4322 279.337 58.9976 281.72 59.2044C283.175 59.3346 289.609 56.6076 288.79 53.8424C288.077 51.4371 291.088 50.7784 291.624 49.5604C293.608 45.1483 287.932 45.7304 288.943 43.0494C289.954 40.3684 284.347 36.0482 281.283 38.2007C276.296 41.6783 267.74 41.6247 272.236 35.9027C275.461 31.8199 269.709 32.6548 269.709 32.6548C269.709 32.6548 273.186 34.7154 267.334 37.9019C261.145 41.303 266.821 50.4414 276.35 47.9978Z" fill="#263238"/>
<path d="M288.016 58.5457C287.178 59.758 285.919 60.6153 284.485 60.951C282.593 61.357 281.865 59.6641 282.577 57.9636C283.213 56.4316 284.959 54.3711 286.767 54.7234C288.575 55.0758 288.989 57.0444 288.016 58.5457Z" fill="#E58A7B"/>
<path d="M259.98 124.812C259.98 124.812 254.802 171.155 254.396 188.743C253.983 207.035 271.945 264.11 271.945 264.11L281.137 260.28C281.137 260.28 270.413 208.13 271.945 190.168C273.569 170.581 280.279 124.843 280.279 124.843L259.98 124.812Z" fill="#498AF4"/>
<path opacity="0.2" d="M272.849 137.535C268.72 146.099 271.501 163.035 273.738 173.07C274.588 165.985 275.599 158.294 276.557 151.178C276.465 140.239 275.614 131.79 272.849 137.535Z" fill="black"/>
<path d="M280.731 257.246C280.777 257.246 281.819 260.172 281.819 260.172L271.218 264.63L269.548 261.52L280.731 257.246Z" fill="#498AF4"/>
<path d="M270.927 124.812C270.927 124.812 274.887 168.888 277.506 185.395C280.387 203.481 291.677 263.711 291.677 263.711H302.241C302.241 263.711 295.913 204.944 294.718 187.035C293.416 167.609 290.827 124.812 290.827 124.812H270.927Z" fill="#498AF4"/>
<path d="M302.401 260.961C302.447 260.961 302.754 263.91 302.754 263.91H291.141L290.314 260.524L302.401 260.961Z" fill="#498AF4"/>
<path opacity="0.2" d="M298.357 257.468C298.333 257.468 298.31 257.46 298.292 257.445C298.273 257.429 298.261 257.408 298.257 257.384C298.196 256.848 292.489 203.764 291.417 187.678C290.253 170.228 287.909 131.522 287.886 131.132C287.885 131.119 287.886 131.106 287.89 131.094C287.895 131.082 287.901 131.071 287.91 131.062C287.919 131.052 287.929 131.045 287.941 131.04C287.952 131.035 287.965 131.032 287.978 131.032C288.003 131.032 288.027 131.042 288.046 131.059C288.064 131.076 288.075 131.099 288.077 131.124C288.077 131.515 290.444 170.19 291.609 187.67C292.681 203.756 298.388 256.802 298.441 257.376C298.443 257.389 298.443 257.402 298.44 257.414C298.437 257.427 298.431 257.438 298.423 257.449C298.415 257.459 298.405 257.467 298.394 257.473C298.382 257.479 298.37 257.483 298.357 257.484V257.468Z" fill="black"/>
<path d="M277.001 53.8426C277.001 54.3099 276.71 54.6852 276.403 54.6852C276.097 54.6852 275.875 54.3099 275.905 53.8426C275.936 53.3753 276.196 53 276.503 53C276.809 53 277.031 53.383 277.001 53.8426Z" fill="#263238"/>
<path d="M271.746 53.8426C271.746 54.3099 271.447 54.6852 271.149 54.6852C270.85 54.6852 270.62 54.3099 270.643 53.8426C270.666 53.3753 270.942 53 271.248 53C271.555 53 271.777 53.383 271.746 53.8426Z" fill="#263238"/>
<path d="M273.401 54.0796C272.761 55.5064 271.937 56.843 270.949 58.0551C271.715 58.8211 273.148 58.4688 273.148 58.4688L273.401 54.0796Z" fill="#DF5753"/>
<path d="M273.539 60.4222C273.521 60.4222 273.503 60.4186 273.487 60.4116C273.471 60.4046 273.456 60.3943 273.444 60.3814C273.432 60.3685 273.422 60.3532 273.416 60.3365C273.41 60.3198 273.407 60.302 273.408 60.2843C273.41 60.247 273.427 60.212 273.454 60.1863C273.481 60.1606 273.517 60.1464 273.554 60.1464C274.14 60.1505 274.719 60.0232 275.249 59.774C275.78 59.5248 276.247 59.16 276.618 58.7063C276.644 58.6832 276.679 58.6704 276.714 58.6704C276.749 58.6704 276.783 58.6832 276.809 58.7063C276.834 58.732 276.848 58.7664 276.848 58.8021C276.848 58.8378 276.834 58.8721 276.809 58.8978C276.413 59.38 275.913 59.7671 275.347 60.0309C274.781 60.2947 274.163 60.4284 273.539 60.4222Z" fill="#263238"/>
<path d="M277.936 52.4328C277.899 52.4516 277.858 52.4614 277.817 52.4614C277.776 52.4614 277.735 52.4516 277.698 52.4328C277.412 52.2475 277.085 52.1323 276.746 52.0964C276.407 52.0604 276.064 52.1048 275.745 52.226C275.714 52.2415 275.68 52.2507 275.645 52.2529C275.61 52.2552 275.576 52.2504 275.543 52.239C275.51 52.2276 275.48 52.2097 275.454 52.1864C275.428 52.1631 275.407 52.1349 275.392 52.1034C275.364 52.0352 275.363 51.9587 275.391 51.89C275.418 51.8213 275.471 51.766 275.538 51.7357C275.938 51.5722 276.372 51.5076 276.803 51.5477C277.234 51.5877 277.649 51.731 278.012 51.9655C278.042 51.9855 278.067 52.0111 278.086 52.0408C278.105 52.0706 278.119 52.1039 278.125 52.1388C278.132 52.1737 278.131 52.2095 278.123 52.2442C278.116 52.2789 278.101 52.3118 278.081 52.3409C278.042 52.3848 277.992 52.4167 277.936 52.4328Z" fill="#263238"/>
<path d="M269.716 50.9012C269.675 50.8913 269.638 50.8701 269.609 50.8399C269.584 50.8149 269.563 50.7851 269.549 50.7523C269.536 50.7194 269.529 50.6841 269.529 50.6484C269.529 50.6127 269.536 50.5774 269.549 50.5445C269.563 50.5117 269.584 50.4819 269.609 50.4569C269.903 50.1276 270.268 49.8706 270.677 49.7058C271.087 49.5411 271.528 49.473 271.968 49.5071C272.004 49.5125 272.037 49.5251 272.067 49.5441C272.098 49.5631 272.124 49.5881 272.144 49.6176C272.164 49.647 272.178 49.6803 272.184 49.7153C272.191 49.7503 272.191 49.7863 272.183 49.8211C272.166 49.8921 272.125 49.9545 272.065 49.9969C272.006 50.0392 271.933 50.0584 271.861 50.0509C271.513 50.029 271.165 50.0866 270.842 50.2193C270.52 50.352 270.231 50.5564 270 50.8169C269.965 50.8557 269.92 50.8841 269.87 50.8989C269.82 50.9138 269.767 50.9146 269.716 50.9012Z" fill="#263238"/>
<path d="M298.533 82.2073L290.567 80.0854C290.567 80.0854 282.754 99.3197 279.988 100.568C276.235 102.284 266.729 108.228 262.684 111.04C262.462 111.997 262.638 114.532 263.144 115.23C270.038 113.973 283.236 108.895 285.994 106.313C292.283 100.423 298.533 82.2073 298.533 82.2073Z" fill="#E58A7B"/>
<path d="M292.972 271.854C292.583 271.885 292.196 271.779 291.877 271.555C291.778 271.466 291.704 271.353 291.663 271.226C291.621 271.1 291.613 270.965 291.639 270.835C291.644 270.754 291.671 270.675 291.717 270.608C291.762 270.54 291.826 270.486 291.9 270.452C292.543 270.123 294.343 271.264 294.55 271.394C294.573 271.408 294.59 271.429 294.6 271.454C294.61 271.479 294.611 271.506 294.604 271.532C294.597 271.559 294.584 271.583 294.565 271.604C294.546 271.624 294.523 271.639 294.496 271.647C293.997 271.77 293.486 271.839 292.972 271.854ZM292.206 270.659C292.148 270.646 292.088 270.646 292.03 270.659C292 270.674 291.976 270.697 291.96 270.725C291.943 270.754 291.936 270.787 291.938 270.82C291.917 270.909 291.921 271.002 291.948 271.089C291.975 271.177 292.024 271.255 292.091 271.318C292.39 271.586 293.141 271.616 294.129 271.425C293.54 271.037 292.878 270.776 292.183 270.659H292.206Z" fill="#498AF4"/>
<path d="M294.458 271.647C294.438 271.653 294.417 271.653 294.397 271.647C293.822 271.325 292.742 270.061 292.903 269.418C292.927 269.316 292.985 269.225 293.067 269.159C293.149 269.094 293.25 269.058 293.355 269.058C293.458 269.044 293.562 269.053 293.662 269.083C293.761 269.113 293.852 269.165 293.93 269.234C294.565 269.778 294.604 271.448 294.604 271.532C294.607 271.557 294.603 271.583 294.59 271.605C294.578 271.627 294.558 271.644 294.535 271.654C294.509 271.66 294.482 271.657 294.458 271.647ZM293.432 269.31H293.378C293.202 269.31 293.179 269.41 293.171 269.448C293.079 269.824 293.761 270.781 294.328 271.233C294.325 270.586 294.125 269.955 293.753 269.425C293.664 269.348 293.55 269.307 293.432 269.31Z" fill="#498AF4"/>
<path d="M272.635 270.896C272.166 271.059 271.656 271.059 271.187 270.896C271.08 270.838 270.99 270.755 270.925 270.653C270.859 270.551 270.82 270.435 270.811 270.314C270.802 270.238 270.812 270.161 270.84 270.09C270.868 270.019 270.913 269.956 270.972 269.908C271.585 269.356 274.09 269.908 274.373 270.015C274.4 270.022 274.424 270.038 274.441 270.06C274.458 270.082 274.466 270.11 274.465 270.138C274.466 270.166 274.459 270.195 274.444 270.219C274.429 270.244 274.407 270.263 274.381 270.276C273.817 270.53 273.233 270.738 272.635 270.896ZM271.386 269.984C271.298 270.002 271.217 270.042 271.149 270.099C271.124 270.118 271.105 270.142 271.095 270.171C271.084 270.199 271.081 270.23 271.087 270.26C271.092 270.341 271.117 270.418 271.16 270.487C271.203 270.555 271.262 270.611 271.332 270.651C271.738 270.865 272.681 270.697 273.898 270.184C273.078 269.977 272.229 269.909 271.386 269.984Z" fill="#498AF4"/>
<path d="M274.358 270.276H274.297C273.531 270.138 271.999 269.257 271.953 268.598C271.953 268.445 272.022 268.231 272.39 268.108C272.514 268.064 272.646 268.045 272.777 268.053C272.909 268.061 273.037 268.095 273.156 268.154C273.983 268.56 274.419 270.031 274.442 270.1C274.448 270.123 274.447 270.147 274.44 270.17C274.434 270.193 274.421 270.213 274.404 270.23C274.393 270.249 274.377 270.264 274.358 270.276ZM272.543 268.338H272.466C272.229 268.422 272.229 268.522 272.229 268.552C272.229 268.951 273.339 269.678 274.113 269.924C273.935 269.308 273.558 268.77 273.041 268.392C272.887 268.313 272.71 268.294 272.543 268.338Z" fill="#498AF4"/>
<path d="M263.335 110.587L255.346 114.264L254.419 116.562L257.368 118.546C257.368 118.546 262.883 117.949 264.454 114.402L263.335 110.587Z" fill="#E58A7B"/>
<path d="M263.673 115.36C263.494 113.825 262.987 112.346 262.187 111.024L263.45 110.074C264.401 111.597 265.008 113.31 265.228 115.092L263.673 115.36Z" fill="#263238"/>
<path d="M265.036 111.675C265.205 111.941 265.288 112.252 265.274 112.567C265.259 112.881 265.149 113.184 264.956 113.433C264.764 113.682 264.5 113.866 264.199 113.96C263.899 114.054 263.577 114.052 263.277 113.956C262.977 113.861 262.714 113.675 262.523 113.424C262.333 113.173 262.224 112.87 262.212 112.556C262.2 112.241 262.286 111.93 262.456 111.666C262.627 111.402 262.875 111.196 263.167 111.078C263.494 110.911 263.874 110.88 264.224 110.992C264.574 111.104 264.866 111.349 265.036 111.675Z" fill="#263238"/>
<path d="M249.946 117.237L251.011 118.309L258.18 115.245L255.346 114.265L249.946 117.237Z" fill="#E58A7B"/>
<path opacity="0.2" d="M280.731 257.246C280.777 257.246 281.819 260.172 281.819 260.172L271.218 264.63L269.548 261.52L280.731 257.246Z" fill="black"/>
<path opacity="0.2" d="M302.401 260.961C302.447 260.961 302.754 263.91 302.754 263.91H291.141L290.314 260.524L302.401 260.961Z" fill="black"/>
<path d="M300.609 80.0011C302.716 86.7955 294.481 96.0871 294.481 96.0871L283.106 91.4451C284.454 87.518 286.009 83.6648 287.763 79.9015C291.256 72.3717 298.48 73.1454 300.609 80.0011Z" fill="#498AF4"/>
<path opacity="0.2" d="M300.609 80.0011C302.716 86.7955 294.481 96.0871 294.481 96.0871L283.106 91.4451C284.454 87.518 286.009 83.6648 287.763 79.9015C291.256 72.3717 298.48 73.1454 300.609 80.0011Z" fill="black"/>
<path d="M187.578 11.9268H182.683V12.7157H187.578V11.9268Z" fill="#498AF4"/>
<path d="M250.94 43.1538L250.348 56.3003L251.136 56.3358L251.728 43.1893L250.94 43.1538Z" fill="#498AF4"/>
<path d="M249.417 15.4658H159.029L150.619 203.687H241.007L249.417 15.4658Z" fill="#498AF4"/>
<path opacity="0.56" d="M246.721 18.0547H156.333L147.922 206.276H238.31L246.721 18.0547Z" fill="#FAFAFA"/>
<path opacity="0.07" d="M244.025 20.6362H153.637L145.218 208.858H235.606L244.025 20.6362Z" fill="#498AF4"/>
<path d="M233.737 102.729H156.586L155.942 117.129H233.094L233.737 102.729Z" fill="white"/>
<path d="M199.014 92.2188H157.053L156.77 98.6608H198.731L199.014 92.2188Z" fill="#498AF4"/>
<path d="M231.998 141.595H154.847L154.203 155.996H231.355L231.998 141.595Z" fill="white"/>
<path opacity="0.47" d="M217.85 175.445H165.969L165.196 192.703H217.077L217.85 175.445Z" fill="#498AF4"/>
<path d="M214.38 195.384H162.499C162.477 195.389 162.453 195.389 162.43 195.384C162.423 195.361 162.423 195.337 162.43 195.315L163.196 178.049C163.196 178.037 163.199 178.026 163.203 178.015C163.208 178.004 163.215 177.994 163.224 177.987C163.232 177.979 163.242 177.973 163.254 177.969C163.265 177.965 163.276 177.964 163.288 177.965H215.169C215.179 177.96 215.189 177.958 215.2 177.958C215.211 177.958 215.221 177.96 215.231 177.965C215.236 177.974 215.239 177.985 215.239 177.995C215.239 178.006 215.236 178.017 215.231 178.026L214.48 195.33C214.471 195.348 214.456 195.363 214.439 195.372C214.421 195.382 214.4 195.386 214.38 195.384ZM162.591 195.2H214.288L215.054 178.118H163.357L162.591 195.2Z" fill="white"/>
<path d="M189.953 131.086H155.314L155.031 137.536H189.662L189.953 131.086Z" fill="#498AF4"/>
<path d="M216.862 56.2092C216.664 60.4003 215.174 64.4273 212.596 67.7375C210.687 70.2379 208.231 72.2677 205.416 73.6712C202.601 75.0747 199.502 75.8146 196.356 75.8341C193.815 75.8535 191.296 75.3523 188.955 74.3613C186.614 73.3704 184.501 71.9107 182.746 70.0721C180.99 68.2336 179.63 66.0552 178.749 63.671C177.867 61.2868 177.483 58.7474 177.62 56.2092C177.889 50.9422 180.161 45.9771 183.97 42.3292C187.778 38.6813 192.837 36.6263 198.111 36.5843C200.654 36.5606 203.176 37.0587 205.52 38.048C207.863 39.0372 209.979 40.4966 211.737 42.3358C213.494 44.175 214.855 46.3551 215.737 48.7413C216.619 51.1275 217.002 53.6692 216.862 56.2092Z" fill="white"/>
<path d="M218.708 40.69C218.658 41.8044 218.262 42.8754 217.575 43.754C217.066 44.4181 216.412 44.9572 215.664 45.3302C214.915 45.7033 214.091 45.9003 213.255 45.9064C212.444 45.9113 211.645 45.7177 210.926 45.3425C210.208 44.9673 209.592 44.4219 209.133 43.754C208.526 42.8514 208.225 41.777 208.276 40.69C208.35 39.2916 208.954 37.9741 209.966 37.0062C210.978 36.0383 212.321 35.4929 213.722 35.4812C214.397 35.475 215.067 35.6072 215.69 35.8697C216.312 36.1322 216.874 36.5193 217.341 37.0073C217.809 37.4953 218.171 38.0738 218.406 38.7072C218.641 39.3405 218.744 40.0153 218.708 40.69Z" fill="#498AF4"/>
<path d="M164.897 109.929C164.86 110.546 164.591 111.127 164.143 111.553C163.695 111.979 163.102 112.22 162.484 112.227C162.185 112.23 161.889 112.173 161.614 112.057C161.339 111.942 161.09 111.771 160.883 111.556C160.676 111.34 160.516 111.085 160.412 110.805C160.308 110.525 160.262 110.227 160.278 109.929C160.311 109.31 160.579 108.728 161.028 108.301C161.477 107.874 162.071 107.634 162.691 107.631C162.989 107.628 163.285 107.687 163.559 107.803C163.834 107.919 164.083 108.089 164.289 108.304C164.496 108.52 164.656 108.775 164.761 109.054C164.865 109.333 164.912 109.631 164.897 109.929Z" fill="#263238"/>
<path d="M175.223 109.929C175.187 110.546 174.919 111.128 174.47 111.555C174.022 111.981 173.428 112.222 172.81 112.227C172.512 112.229 172.216 112.171 171.942 112.055C171.668 111.939 171.42 111.768 171.214 111.553C171.008 111.337 170.848 111.082 170.744 110.803C170.641 110.524 170.595 110.226 170.611 109.929C170.644 109.311 170.912 108.73 171.358 108.303C171.805 107.876 172.398 107.635 173.016 107.631C173.315 107.627 173.611 107.685 173.886 107.8C174.162 107.916 174.411 108.086 174.617 108.302C174.824 108.517 174.984 108.772 175.089 109.052C175.193 109.332 175.238 109.63 175.223 109.929Z" fill="#263238"/>
<path d="M185.556 109.929C185.521 110.546 185.252 111.128 184.804 111.555C184.355 111.981 183.762 112.222 183.143 112.227C182.845 112.229 182.549 112.17 182.274 112.055C181.999 111.939 181.751 111.768 181.544 111.553C181.338 111.338 181.177 111.083 181.073 110.803C180.968 110.524 180.922 110.226 180.937 109.929C180.972 109.311 181.241 108.729 181.689 108.302C182.137 107.876 182.731 107.635 183.35 107.631C183.648 107.627 183.944 107.685 184.22 107.8C184.495 107.916 184.744 108.086 184.95 108.302C185.157 108.517 185.318 108.772 185.422 109.052C185.526 109.332 185.571 109.63 185.556 109.929Z" fill="#263238"/>
<path d="M163.158 148.796C163.121 149.413 162.852 149.993 162.404 150.42C161.956 150.846 161.363 151.087 160.745 151.094C160.447 151.096 160.151 151.038 159.876 150.922C159.602 150.806 159.353 150.635 159.147 150.42C158.94 150.205 158.78 149.95 158.675 149.671C158.571 149.391 158.524 149.094 158.539 148.796C158.574 148.178 158.843 147.596 159.291 147.17C159.739 146.743 160.333 146.502 160.952 146.498C161.25 146.495 161.546 146.554 161.821 146.669C162.095 146.785 162.344 146.956 162.55 147.171C162.757 147.386 162.917 147.641 163.022 147.921C163.126 148.2 163.173 148.498 163.158 148.796Z" fill="#263238"/>
<path d="M173.484 148.796C173.449 149.412 173.181 149.993 172.734 150.419C172.288 150.846 171.696 151.087 171.078 151.094C170.78 151.097 170.484 151.039 170.208 150.924C169.933 150.809 169.684 150.638 169.478 150.423C169.271 150.207 169.11 149.952 169.006 149.672C168.902 149.392 168.857 149.094 168.872 148.796C168.907 148.178 169.176 147.596 169.624 147.17C170.073 146.743 170.666 146.502 171.285 146.498C171.583 146.495 171.878 146.554 172.153 146.67C172.427 146.785 172.675 146.956 172.881 147.172C173.087 147.387 173.247 147.642 173.35 147.921C173.454 148.201 173.499 148.498 173.484 148.796Z" fill="#263238"/>
<path d="M183.84 148.796C183.805 149.414 183.536 149.995 183.088 150.422C182.64 150.849 182.046 151.089 181.427 151.094C181.129 151.095 180.834 151.036 180.56 150.92C180.285 150.803 180.038 150.633 179.831 150.418C179.625 150.203 179.464 149.948 179.36 149.669C179.255 149.391 179.208 149.093 179.221 148.796C179.258 148.178 179.527 147.598 179.975 147.172C180.423 146.745 181.016 146.504 181.634 146.498C181.932 146.494 182.229 146.552 182.504 146.667C182.779 146.783 183.028 146.953 183.235 147.169C183.442 147.384 183.602 147.64 183.706 147.92C183.81 148.199 183.856 148.498 183.84 148.796Z" fill="#263238"/>
<path d="M194.15 148.796C194.114 149.413 193.844 149.993 193.396 150.42C192.949 150.846 192.356 151.087 191.737 151.094C191.439 151.095 191.144 151.036 190.87 150.92C190.596 150.803 190.348 150.633 190.142 150.418C189.935 150.203 189.775 149.948 189.67 149.669C189.565 149.39 189.518 149.093 189.531 148.796C189.568 148.178 189.838 147.598 190.285 147.172C190.733 146.745 191.326 146.504 191.944 146.498C192.242 146.495 192.538 146.554 192.813 146.669C193.088 146.785 193.336 146.956 193.543 147.171C193.749 147.386 193.91 147.641 194.014 147.921C194.119 148.2 194.165 148.498 194.15 148.796Z" fill="#263238"/>
<path d="M204.522 148.796C204.485 149.413 204.216 149.993 203.768 150.42C203.32 150.846 202.727 151.087 202.109 151.094C201.81 151.097 201.514 151.039 201.239 150.924C200.964 150.809 200.715 150.638 200.508 150.423C200.301 150.207 200.141 149.952 200.037 149.672C199.933 149.392 199.887 149.094 199.903 148.796C199.938 148.178 200.207 147.596 200.655 147.17C201.103 146.743 201.697 146.502 202.316 146.498C202.614 146.495 202.91 146.554 203.185 146.669C203.459 146.785 203.708 146.956 203.914 147.171C204.121 147.386 204.281 147.641 204.386 147.921C204.49 148.2 204.537 148.498 204.522 148.796Z" fill="#263238"/>
<path d="M202.954 55.1872C206.16 52.0519 206.33 47.0264 203.334 43.9625C200.338 40.8985 195.31 40.9563 192.104 44.0916C188.898 47.2269 188.728 52.2524 191.724 55.3164C194.72 58.3803 199.748 58.3225 202.954 55.1872Z" fill="#498AF4"/>
<path d="M212.596 67.7374C210.687 70.2377 208.231 72.2675 205.416 73.6711C202.601 75.0746 199.502 75.8145 196.356 75.834C193.306 75.8599 190.297 75.1348 187.593 73.7228C184.889 72.3109 182.574 70.2553 180.853 67.7374C184.575 64.0299 190.466 61.6094 196.992 61.6094C203.518 61.6094 209.202 64.0299 212.596 67.7374Z" fill="#498AF4"/>
<path opacity="0.1" d="M202.954 55.1872C206.16 52.0519 206.33 47.0264 203.334 43.9625C200.338 40.8985 195.31 40.9563 192.104 44.0916C188.898 47.2269 188.728 52.2524 191.724 55.3164C194.72 58.3803 199.748 58.3225 202.954 55.1872Z" fill="white"/>
<path opacity="0.1" d="M212.596 67.7374C210.687 70.2377 208.231 72.2675 205.416 73.6711C202.601 75.0746 199.502 75.8145 196.356 75.834C193.306 75.8599 190.297 75.1348 187.593 73.7228C184.889 72.3109 182.574 70.2553 180.853 67.7374C184.575 64.0299 190.466 61.6094 196.992 61.6094C203.518 61.6094 209.202 64.0299 212.596 67.7374Z" fill="white"/>
<path d="M99.8941 120.599C99.1664 122.192 98.4004 123.946 97.7339 125.647C97.0675 127.348 96.3858 129.102 95.796 130.848C94.5917 134.29 93.6745 137.826 93.0537 141.419L92.8852 142.545C92.8691 142.738 92.8872 142.933 92.9388 143.119C93.1196 143.754 93.4043 144.355 93.7814 144.897C94.7651 146.299 95.9062 147.584 97.1824 148.727C98.528 149.978 99.9394 151.157 101.411 152.258C102.881 153.392 104.429 154.495 105.953 155.536L104.521 158.225C100.881 156.639 97.4259 154.659 94.218 152.319C92.5066 151.071 90.962 149.609 89.622 147.968C88.8277 146.992 88.2084 145.885 87.7913 144.697C87.5488 143.955 87.4247 143.18 87.4236 142.399C87.4236 142.216 87.4236 141.947 87.4236 141.817V141.442L87.5002 140.676C87.9393 136.685 88.7785 132.748 90.005 128.925C90.6025 127.041 91.2383 125.164 91.966 123.334C92.6937 121.503 93.4443 119.711 94.3712 117.849L99.8941 120.599Z" fill="#E58A7B"/>
<path d="M104.873 155.062L110.289 152.319L108.887 158.263C108.887 158.263 105.172 159.305 103.448 157.497L104.873 155.062Z" fill="#E58A7B"/>
<path d="M115.245 153.292L113.805 158.21L108.887 158.263L110.289 152.319L115.245 153.292Z" fill="#E58A7B"/>
<path d="M122.89 91.9204C123.179 92.982 123.582 94.0092 124.092 94.9844C123.943 95.1533 123.751 95.2788 123.537 95.3475C123.323 95.4163 123.094 95.4258 122.874 95.3751L122.89 91.9204Z" fill="#DF5753"/>
<path d="M122.729 91.9664C123.046 91.9664 123.303 91.572 123.303 91.0855C123.303 90.599 123.046 90.2046 122.729 90.2046C122.411 90.2046 122.154 90.599 122.154 91.0855C122.154 91.572 122.411 91.9664 122.729 91.9664Z" fill="#263238"/>
<path d="M122.56 90.2351L123.724 89.9058C123.724 89.9058 123.158 90.8096 122.56 90.2351Z" fill="#263238"/>
<path d="M107.929 97.5425C108.627 101.104 109.324 107.638 106.826 110.021C106.826 110.021 107.807 113.636 114.433 113.636C121.717 113.636 117.91 110.021 117.91 110.021C113.935 109.071 114.034 106.122 114.732 103.349L107.929 97.5425Z" fill="#E58A7B"/>
<path d="M105.992 89.4231C106.359 95.3749 106.39 97.9027 109.393 100.959C113.92 105.555 121.151 103.809 122.568 97.895C123.847 92.533 123.035 83.7087 117.206 81.3418C115.926 80.8146 114.534 80.6227 113.159 80.784C111.785 80.9453 110.474 81.4546 109.351 82.2636C108.229 83.0727 107.331 84.1548 106.743 85.4076C106.155 86.6604 105.896 88.0425 105.992 89.4231Z" fill="#E58A7B"/>
<path d="M106.581 82.7282C103.594 83.8159 99.6108 83.004 101.173 92.2189C102.828 101.978 100.285 105.187 100.285 105.187C100.285 105.187 111.614 107.6 123.181 105.042C123.181 105.042 119.649 98.8678 120.638 94.3178C121.901 88.5728 120.906 86.451 120.906 86.451C120.906 86.451 110.779 81.1962 106.581 82.7282Z" fill="#263238"/>
<path d="M119.22 92.5252C119.224 93.6569 119.548 94.7645 120.155 95.7194C120.967 96.9604 121.924 96.4854 122.162 95.1679C122.376 94.0113 122.216 91.966 121.181 91.1694C120.147 90.3728 119.236 91.1541 119.22 92.5252Z" fill="#E58A7B"/>
<path d="M103.985 83.7317C103.127 81.3188 107.217 77.6037 115.873 79.1357C124.529 80.6677 124.904 87.8757 124.904 87.8757L123.158 85.7922L123.234 87.983L114.341 89.6911L103.985 83.7317Z" fill="#263238"/>
<path d="M104.72 110.427C104.669 110.077 104.756 109.721 104.964 109.435C105.171 109.149 105.482 108.955 105.831 108.895C108.527 108.45 114.655 107.546 117.734 107.975C120.032 108.297 120.63 109.63 120.729 110.725C120.745 110.917 120.719 111.11 120.654 111.291C120.589 111.472 120.486 111.637 120.352 111.775C120.217 111.913 120.055 112.02 119.876 112.09C119.697 112.16 119.504 112.191 119.312 112.181L105.999 111.583C105.685 111.567 105.387 111.444 105.154 111.233C104.92 111.022 104.767 110.737 104.72 110.427Z" fill="#498AF4"/>
<path opacity="0.6" d="M104.72 110.427C104.669 110.077 104.756 109.721 104.964 109.435C105.171 109.149 105.482 108.955 105.831 108.895C108.527 108.45 114.655 107.546 117.734 107.975C120.032 108.297 120.63 109.63 120.729 110.725C120.745 110.917 120.719 111.11 120.654 111.291C120.589 111.472 120.486 111.637 120.352 111.775C120.217 111.913 120.055 112.02 119.876 112.09C119.697 112.16 119.504 112.191 119.312 112.181L105.999 111.583C105.685 111.567 105.387 111.444 105.154 111.233C104.92 111.022 104.767 110.737 104.72 110.427Z" fill="black"/>
<path d="M112.418 244.247L117.359 247.678L125.624 236.472L120.683 233.048L112.418 244.247Z" fill="#E58A7B"/>
<path d="M100.898 244.025L106.114 246.997L113.429 235.147L108.213 232.175L100.898 244.025Z" fill="#E58A7B"/>
<path d="M125.616 236.472L121.357 242.248L116.417 238.823L120.676 233.048L125.616 236.472Z" fill="#CF6F64"/>
<path d="M108.205 232.175L113.429 235.155L109.661 241.26L104.437 238.28L108.205 232.175Z" fill="#CF6F64"/>
<path d="M116.585 147.838C116.585 147.838 135.873 172.144 132.25 195.392C129.332 214.166 112.403 239.59 112.403 239.59L104.444 235.637C110.054 224.396 114.841 212.764 118.768 200.83C119.979 197.125 120.333 193.194 119.802 189.332C119.271 185.471 117.87 181.78 115.704 178.54C105.93 164.269 90.2732 172.764 100.806 147.838H116.585Z" fill="#498AF4"/>
<path opacity="0.6" d="M116.585 147.838C116.585 147.838 135.873 172.144 132.25 195.392C129.332 214.166 112.403 239.59 112.403 239.59L104.444 235.637C110.054 224.396 114.841 212.764 118.768 200.83C119.979 197.125 120.333 193.194 119.802 189.332C119.271 185.471 117.87 181.78 115.704 178.54C105.93 164.269 90.2732 172.764 100.806 147.838H116.585Z" fill="black"/>
<path opacity="0.4" d="M126.046 163.449L123.242 160.661C123.242 160.883 128.673 194.411 130.197 203.833C131.097 201.081 131.786 198.264 132.258 195.407C134.05 184.001 130.304 172.35 126.046 163.449Z" fill="black"/>
<path d="M125.195 147.838C125.195 147.838 148.42 178.386 149.079 196.702C149.623 212.022 123.801 241.704 123.801 241.704L116.294 236.848C116.294 236.848 131.407 215.767 135.214 198.548C133.744 181.481 102.644 147.838 102.644 147.838H125.195Z" fill="#498AF4"/>
<path opacity="0.6" d="M125.195 147.838C125.195 147.838 148.42 178.386 149.079 196.702C149.623 212.022 123.801 241.704 123.801 241.704L116.294 236.848C116.294 236.848 131.407 215.767 135.214 198.548C133.744 181.481 102.644 147.838 102.644 147.838H125.195Z" fill="black"/>
<path d="M96.4625 111.384C93.9806 111.974 91.5984 120.998 91.5984 120.998L101.304 127.478C101.304 127.478 104.536 120.339 103.402 117.213C102.23 113.958 99.5801 110.641 96.4625 111.384Z" fill="#498AF4"/>
<path opacity="0.2" d="M98.3623 117.198L97.6882 125.065L101.296 127.486C102.292 125.243 103.03 122.894 103.495 120.484L98.3623 117.198Z" fill="black"/>
<path d="M128.068 111.56C128.068 111.56 130.932 112.564 125.195 147.83H100.79C101.204 137.872 101.212 131.744 96.4624 111.384C99.8796 110.68 103.343 110.224 106.826 110.021C110.516 109.756 114.22 109.756 117.91 110.021C122.675 110.457 128.068 111.56 128.068 111.56Z" fill="#498AF4"/>
<path d="M130.55 117.198C131.101 118.73 131.683 120.377 132.296 121.963C132.909 123.548 133.491 125.18 134.112 126.789L135.988 131.599L136.463 132.802L136.708 133.399L136.823 133.698C136.823 133.752 136.823 133.752 136.823 133.744C136.683 133.547 136.5 133.384 136.287 133.269C135.984 133.091 135.642 132.988 135.291 132.97C134.999 132.961 134.709 133.016 134.441 133.131C134.089 133.292 134.089 133.361 134.096 133.353C134.16 133.302 134.217 133.243 134.265 133.177C134.689 132.62 135.056 132.022 135.36 131.392C135.72 130.688 136.065 129.937 136.41 129.179C137.084 127.647 137.704 126.061 138.325 124.46C138.945 122.859 139.535 121.243 140.109 119.611L141.856 114.724L144.805 115.49C144.223 118.983 143.472 122.384 142.568 125.846C142.132 127.57 141.618 129.278 141.036 131.002C140.745 131.867 140.423 132.725 140.056 133.606C139.673 134.562 139.201 135.48 138.646 136.348C138.443 136.64 138.217 136.917 137.972 137.176C137.581 137.598 137.106 137.935 136.578 138.164C136.109 138.365 135.602 138.459 135.092 138.439C134.521 138.418 133.965 138.252 133.476 137.957C132.899 137.597 132.42 137.099 132.082 136.509C131.967 136.31 131.867 136.111 131.798 135.965L131.653 135.674L131.362 135.077L130.779 133.889C130.013 132.296 129.247 130.688 128.581 129.071C127.915 127.455 127.21 125.816 126.551 124.169C125.892 122.522 125.303 120.875 124.743 119.098L130.55 117.198Z" fill="#E58A7B"/>
<path d="M128.068 111.561C131.002 112.258 134.303 120.929 134.303 120.929L125.578 128.351C125.578 128.351 119.933 118.899 121.074 115.781C122.262 112.533 124.238 110.649 128.068 111.561Z" fill="#498AF4"/>
<path d="M143.242 111.982L146.306 109.423L148.436 112.74L146.865 115.505C146.865 115.505 144.368 117.803 142.162 116.631C141.812 115.844 141.728 114.965 141.923 114.126C142.118 113.287 142.581 112.534 143.242 111.982Z" fill="#E58A7B"/>
<path d="M151.837 109.431L151.607 110.266L146.758 111.078L146.283 109.423L151.837 109.431Z" fill="#E58A7B"/>
<path d="M124.399 242.094L115.651 236.441L117.221 233.714L127.049 239.758L124.399 242.094Z" fill="#498AF4"/>
<path d="M109.538 246.599C108.771 246.505 108.033 246.243 107.378 245.833C107.351 245.823 107.327 245.806 107.311 245.782C107.294 245.759 107.285 245.731 107.285 245.702C107.285 245.674 107.294 245.646 107.311 245.623C107.327 245.599 107.351 245.582 107.378 245.572C107.615 245.496 109.676 244.86 110.273 245.35C110.341 245.406 110.392 245.479 110.421 245.561C110.451 245.643 110.458 245.731 110.442 245.817C110.431 245.955 110.386 246.088 110.309 246.203C110.233 246.319 110.128 246.413 110.005 246.476C109.862 246.554 109.701 246.596 109.538 246.599ZM107.815 245.756C108.772 246.246 109.538 246.422 109.906 246.239C109.986 246.194 110.053 246.13 110.101 246.052C110.15 245.975 110.177 245.886 110.182 245.794C110.182 245.672 110.182 245.618 110.113 245.588C109.791 245.327 108.642 245.526 107.799 245.756H107.815Z" fill="#263238"/>
<path d="M107.432 245.886C107.391 245.886 107.353 245.869 107.324 245.84C107.313 245.819 107.307 245.795 107.307 245.771C107.307 245.747 107.313 245.724 107.324 245.702C107.324 245.633 107.822 243.971 108.604 243.596C108.704 243.55 108.812 243.527 108.922 243.527C109.031 243.527 109.14 243.55 109.239 243.596C109.347 243.63 109.44 243.699 109.504 243.792C109.568 243.885 109.599 243.997 109.592 244.109C109.538 244.799 108.136 245.748 107.493 245.909L107.432 245.886ZM108.918 243.795C108.843 243.797 108.77 243.816 108.703 243.849C108.228 244.079 107.838 244.975 107.646 245.519C108.32 245.235 109.247 244.484 109.278 244.063C109.278 243.994 109.278 243.91 109.102 243.833C109.044 243.803 108.982 243.782 108.918 243.772V243.795Z" fill="#263238"/>
<path d="M120.469 249.908C119.603 249.908 118.401 248.797 117.742 248.115C117.725 248.092 117.716 248.064 117.716 248.035C117.716 248.006 117.725 247.978 117.742 247.954C117.757 247.93 117.779 247.909 117.804 247.896C117.83 247.882 117.859 247.876 117.887 247.878C118.194 247.878 120.852 248.276 121.227 249.027C121.267 249.094 121.288 249.171 121.288 249.249C121.288 249.327 121.267 249.404 121.227 249.471C121.171 249.588 121.086 249.689 120.98 249.764C120.874 249.839 120.751 249.885 120.622 249.9L120.469 249.908ZM118.248 248.222C119.213 249.157 120.063 249.678 120.546 249.616C120.63 249.605 120.711 249.574 120.78 249.524C120.849 249.475 120.906 249.409 120.944 249.333C120.961 249.307 120.97 249.276 120.97 249.245C120.97 249.214 120.961 249.183 120.944 249.157C120.745 248.743 119.328 248.391 118.248 248.222Z" fill="#263238"/>
<path d="M118.332 248.184C118.16 248.189 117.988 248.176 117.818 248.146C117.795 248.142 117.773 248.133 117.754 248.118C117.735 248.103 117.72 248.084 117.711 248.062C117.7 248.039 117.694 248.014 117.694 247.989C117.694 247.964 117.7 247.939 117.711 247.916C117.757 247.862 118.791 246.614 119.772 246.53C120.049 246.508 120.324 246.596 120.538 246.775C120.837 247.035 120.821 247.265 120.745 247.41C120.553 247.931 119.228 248.184 118.332 248.184ZM118.133 247.901C118.99 247.947 120.362 247.663 120.538 247.288C120.538 247.288 120.599 247.165 120.4 246.997C120.321 246.928 120.228 246.876 120.128 246.844C120.028 246.813 119.922 246.802 119.818 246.813C119.157 246.997 118.569 247.38 118.133 247.908V247.901Z" fill="#263238"/>
<path d="M107.639 245.059L101.143 243.221C101.031 243.187 100.91 243.195 100.804 243.245C100.698 243.294 100.614 243.381 100.568 243.489L98.3776 248.414C98.3262 248.54 98.302 248.676 98.3067 248.812C98.3114 248.948 98.3449 249.082 98.405 249.204C98.4651 249.326 98.5503 249.434 98.6552 249.521C98.76 249.608 98.8821 249.672 99.0134 249.709C101.311 250.306 102.414 250.475 105.272 251.294C107.033 251.784 109.546 252.696 111.974 253.385C114.402 254.075 115.214 251.708 114.272 251.202C110.013 248.95 109.676 247.372 108.512 245.687C108.303 245.382 107.994 245.16 107.639 245.059Z" fill="#498AF4"/>
<path d="M117.918 247.219L112.372 243.389C112.278 243.32 112.162 243.289 112.047 243.3C111.931 243.311 111.823 243.365 111.744 243.45L108.067 247.403C107.978 247.505 107.911 247.625 107.871 247.755C107.832 247.885 107.82 248.022 107.838 248.157C107.855 248.291 107.901 248.421 107.972 248.537C108.044 248.652 108.139 248.751 108.251 248.827C110.205 250.137 111.216 250.666 113.659 252.359C115.191 253.401 118.156 255.714 120.224 257.154C122.292 258.594 123.832 256.618 123.096 255.836C119.803 252.32 119.083 250.114 118.539 248.115C118.444 247.752 118.224 247.435 117.918 247.219Z" fill="#498AF4"/>
<path d="M113.422 240.095L103.426 235.124L104.46 232.412L115.138 237.652L113.422 240.095Z" fill="#498AF4"/>
<path d="M100.423 146.398L99.5803 148.604C99.496 148.773 99.6952 148.949 99.9786 148.949H125.318C125.54 148.949 125.724 148.842 125.739 148.704L125.954 146.513C125.954 146.368 125.777 146.237 125.54 146.237H100.821C100.747 146.23 100.672 146.241 100.602 146.269C100.533 146.297 100.472 146.342 100.423 146.398Z" fill="#498AF4"/>
<path opacity="0.4" d="M100.423 146.398L99.5803 148.604C99.496 148.773 99.6952 148.949 99.9786 148.949H125.318C125.54 148.949 125.724 148.842 125.739 148.704L125.954 146.513C125.954 146.368 125.777 146.237 125.54 146.237H100.821C100.747 146.23 100.672 146.241 100.602 146.269C100.533 146.297 100.472 146.342 100.423 146.398Z" fill="white"/>
<path d="M104.414 149.164H103.747C103.617 149.164 103.517 149.095 103.525 149.01L103.839 146.168C103.839 146.092 103.962 146.023 104.092 146.023H104.758C104.889 146.023 104.988 146.092 104.98 146.168L104.666 149.01C104.659 149.095 104.544 149.164 104.414 149.164Z" fill="#498AF4"/>
<path d="M120.04 149.164H119.381C119.251 149.164 119.151 149.095 119.159 149.01L119.466 146.168C119.466 146.092 119.596 146.023 119.726 146.023H120.385C120.515 146.023 120.622 146.092 120.607 146.168L120.3 149.01C120.262 149.095 120.178 149.164 120.04 149.164Z" fill="#498AF4"/>
<g style="mix-blend-mode:multiply">
<path d="M103.831 278.886C115.165 278.886 124.353 278.22 124.353 277.4C124.353 276.579 115.165 275.914 103.831 275.914C92.4979 275.914 83.3103 276.579 83.3103 277.4C83.3103 278.22 92.4979 278.886 103.831 278.886Z" fill="#F5F5F5"/>
</g>
<path d="M116.333 275.301C112.702 274.244 108.673 272.888 106.237 271.471C106.168 271.425 106.091 271.402 106.022 271.363V254.925H113.368C113.926 254.892 114.45 254.647 114.833 254.241C115.216 253.834 115.429 253.297 115.429 252.738C115.429 252.18 115.216 251.642 114.833 251.236C114.45 250.829 113.926 250.584 113.368 250.551H106.06V175.621H101.648V250.551H94.3483C94.0503 250.534 93.7517 250.577 93.471 250.679C93.1904 250.781 92.9335 250.939 92.7162 251.144C92.4989 251.349 92.3258 251.596 92.2075 251.87C92.0891 252.144 92.0281 252.44 92.0281 252.738C92.0281 253.037 92.0891 253.332 92.2075 253.606C92.3258 253.881 92.4989 254.128 92.7162 254.332C92.9335 254.537 93.1904 254.695 93.471 254.797C93.7517 254.899 94.0503 254.943 94.3483 254.925H101.648V271.34C101.579 271.34 101.51 271.402 101.441 271.448C98.9673 272.888 94.9688 274.244 91.338 275.278C91.0927 275.352 90.8821 275.511 90.7443 275.727C90.6064 275.943 90.5505 276.202 90.5866 276.455C90.6227 276.709 90.7485 276.941 90.9411 277.11C91.1337 277.279 91.3805 277.374 91.6367 277.377H116.034C116.279 277.36 116.51 277.26 116.69 277.093C116.87 276.926 116.987 276.702 117.022 276.459C117.057 276.216 117.008 275.969 116.882 275.758C116.757 275.547 116.563 275.386 116.333 275.301Z" fill="#E0E0E0"/>
<path d="M117.459 167.992H90.2196C88.0282 167.992 86.2517 169.768 86.2517 171.96V180.056C86.2517 182.248 88.0282 184.024 90.2196 184.024H117.459C119.65 184.024 121.426 182.248 121.426 180.056V171.96C121.426 169.768 119.65 167.992 117.459 167.992Z" fill="#498AF4"/>
<path d="M89.9668 184.032V185.426C89.9668 186.575 91.2154 187.509 92.7474 187.509H114.961C116.493 187.509 117.742 186.575 117.742 185.426V184.032H89.9668Z" fill="#498AF4"/>
<path opacity="0.3" d="M89.9668 184.032V185.426C89.9668 186.575 91.2154 187.509 92.7474 187.509H114.961C116.493 187.509 117.742 186.575 117.742 185.426V184.032H89.9668Z" fill="white"/>
</svg>
